<svg width="20" height="16" viewBox="0 0 20 16" fill="none" xmlns="http://www.w3.org/2000/svg">
<path d="M6.24997 13.1953C6.05131 13.1955 5.85938 13.1233 5.71012 12.9922L0.710125 8.61718C0.622186 8.54018 0.551716 8.44529 0.503434 8.33885C0.455153 8.2324 0.430176 8.11687 0.430176 7.99999C0.430176 7.88311 0.455153 7.76758 0.503434 7.66114C0.551716 7.55469 0.622186 7.4598 0.710125 7.3828L5.71012 3.0078C5.87386 2.86452 6.08782 2.79216 6.30491 2.80663C6.52201 2.8211 6.72446 2.92121 6.86774 3.08495C7.01102 3.24869 7.08339 3.46264 7.06892 3.67974C7.05445 3.89683 6.95433 4.09929 6.79059 4.24257L2.49567 7.99999L6.7902 11.7574C6.91589 11.8673 7.00506 12.0129 7.0458 12.1748C7.08654 12.3367 7.07691 12.5072 7.01819 12.6635C6.95947 12.8198 6.85446 12.9544 6.71719 13.0495C6.57992 13.1445 6.41692 13.1954 6.24997 13.1953Z" fill="white"/>
<path d="M13.75 13.1953C13.583 13.1954 13.4199 13.1446 13.2826 13.0496C13.1453 12.9546 13.0402 12.82 12.9814 12.6637C12.9227 12.5074 12.913 12.3369 12.9537 12.1749C12.9945 12.013 13.0836 11.8673 13.2094 11.7574L17.5043 7.99999L13.2097 4.24257C13.046 4.09929 12.9459 3.89683 12.9314 3.67974C12.9169 3.46264 12.9893 3.24869 13.1326 3.08495C13.2759 2.92121 13.4783 2.8211 13.6954 2.80663C13.9125 2.79216 14.1265 2.86452 14.2902 3.0078L19.2902 7.3828C19.3782 7.4598 19.4486 7.55469 19.4969 7.66114C19.5452 7.76758 19.5702 7.88311 19.5702 7.99999C19.5702 8.11687 19.5452 8.2324 19.4969 8.33885C19.4486 8.44529 19.3782 8.54018 19.2902 8.61718L14.2902 12.9922C14.1409 13.1234 13.9488 13.1957 13.75 13.1953Z" fill="white"/>
<path d="M8.12506 15.0703C7.99732 15.0702 7.87134 15.0404 7.75718 14.9831C7.64301 14.9257 7.54381 14.8426 7.46748 14.7401C7.39114 14.6377 7.33979 14.5188 7.31751 14.3931C7.29522 14.2673 7.30263 14.138 7.33913 14.0156L11.0891 1.51559C11.1174 1.40952 11.1666 1.31019 11.234 1.2235C11.3013 1.13681 11.3853 1.06451 11.4811 1.01089C11.5769 0.957273 11.6825 0.923424 11.7916 0.91135C11.9007 0.899275 12.0111 0.909221 12.1163 0.940598C12.2215 0.971974 12.3193 1.02414 12.404 1.09401C12.4886 1.16389 12.5584 1.25004 12.6092 1.34737C12.6599 1.4447 12.6906 1.55122 12.6995 1.66064C12.7083 1.77005 12.6951 1.88012 12.6606 1.98434L8.91061 14.4843C8.86017 14.6535 8.75648 14.8019 8.61495 14.9075C8.47343 15.0131 8.30162 15.0702 8.12506 15.0703Z" fill="white"/>
</svg>
