<svg width="301" height="220" viewBox="0 0 301 220" fill="none" xmlns="http://www.w3.org/2000/svg">
<g clip-path="url(#clip0_58_5631)">
<path d="M271.239 47.2545C296.641 82.076 318.52 150.622 278.275 189.315C249.095 217.369 211.881 219.047 171.21 218.999C98.8254 218.913 11.5254 214.231 2.35336 145.394C-3.51999 101.314 21.1468 41.8421 69.4806 41.8421C153.812 41.8421 215.775 -28.7771 271.239 47.2545Z" fill="#6592E9" fill-opacity="0.1"/>
<path d="M47.198 5.37918C47.198 5.37918 43.1669 1.28757 39.4885 4.45202L38.5009 0.844146C38.5009 0.844146 46.0189 -2.17921 48.1857 3.21748L47.198 5.37918Z" fill="#8BC34A"/>
<path d="M158.322 22.6851C158.322 22.6851 154.29 18.5935 150.612 21.7579L149.635 18.1501C149.635 18.1501 157.158 15.1267 159.324 20.5234L158.322 22.6851Z" fill="#FF5722"/>
<path d="M254.231 46.885C254.231 46.885 250.626 42.9536 246.662 45.2171L246.044 42.0451C246.044 42.0451 253.812 40.3409 255.438 45.1662L254.231 46.885Z" fill="#FFCA28"/>
<path d="M112.093 16.2702C112.093 16.2702 111.473 23.4962 117.56 24.4309L114.903 28.3477C114.903 28.3477 105.793 23.6175 109.17 17.0918L112.093 16.2702Z" fill="#FFCA28"/>
<path d="M68.5884 50.7236C68.5884 50.7236 62.8944 51.3585 63.106 56.2262L59.6644 54.7749C59.6644 54.7749 61.9269 46.9948 67.5 48.6023L68.5884 50.7236Z" fill="#102770"/>
<path d="M223.119 64.0478C223.119 64.0478 226.765 68.4668 230.724 65.6268L231.392 69.3016C231.392 69.3016 223.642 71.6639 221.939 66.1194L223.119 64.0478Z" fill="#102770"/>
<path d="M68.5681 119.065C68.5681 119.065 67.6057 124.713 72.3473 125.852L69.9942 128.76C69.9942 128.76 63.1412 124.436 66.2301 119.523L68.5681 119.065Z" fill="#FF5722"/>
<path d="M43.9885 107.294C43.9885 107.294 43.7617 101.575 38.8891 101.439L40.5872 98.1079C40.5872 98.1079 48.1859 100.92 46.1854 106.362L43.9885 107.294Z" fill="#19B5FE"/>
<path d="M132.482 111.577C132.482 111.577 132.25 105.858 127.378 105.722L129.076 102.391C129.076 102.391 136.674 105.203 134.674 110.645L132.482 111.577Z" fill="#19B5FE"/>
<path d="M228.202 6.74707C228.202 6.74707 233.558 8.76264 235.589 4.34351L237.987 7.21065C237.987 7.21065 232.444 13.1012 228.202 9.13049V6.74707Z" fill="#19B5FE"/>
<path d="M134.311 46.2321C134.311 46.5311 134.222 46.8234 134.056 47.072C133.89 47.3206 133.654 47.5143 133.378 47.6287C133.102 47.7432 132.798 47.7731 132.504 47.7148C132.211 47.6564 131.942 47.5125 131.73 47.3011C131.519 47.0896 131.375 46.8203 131.317 46.527C131.258 46.2338 131.288 45.9299 131.403 45.6536C131.517 45.3774 131.711 45.1413 131.96 44.9752C132.208 44.8091 132.5 44.7205 132.799 44.7205C133.2 44.7205 133.585 44.8797 133.868 45.1632C134.152 45.4467 134.311 45.8312 134.311 46.2321Z" fill="#FF6E59"/>
<path d="M126.108 5.91549C126.108 6.21447 126.019 6.50674 125.853 6.75533C125.687 7.00392 125.451 7.19768 125.174 7.31209C124.898 7.42651 124.594 7.45645 124.301 7.39812C124.008 7.33979 123.738 7.19582 123.527 6.9844C123.316 6.77299 123.172 6.50364 123.113 6.2104C123.055 5.91716 123.085 5.61322 123.199 5.33699C123.314 5.06077 123.508 4.82468 123.756 4.65857C124.005 4.49247 124.297 4.40381 124.596 4.40381C124.997 4.40381 125.381 4.56307 125.665 4.84657C125.948 5.13006 126.108 5.51456 126.108 5.91549Z" fill="#8BC34A"/>
<path d="M203.203 97.1755C203.203 97.4745 203.114 97.7667 202.948 98.0153C202.782 98.2639 202.546 98.4577 202.27 98.5721C201.994 98.6865 201.69 98.7165 201.397 98.6581C201.103 98.5998 200.834 98.4558 200.623 98.2444C200.411 98.033 200.267 97.7636 200.209 97.4704C200.15 97.1772 200.18 96.8732 200.295 96.597C200.409 96.3208 200.603 96.0847 200.852 95.9186C201.1 95.7525 201.392 95.6638 201.691 95.6638C202.092 95.6638 202.477 95.8231 202.76 96.1066C203.044 96.3901 203.203 96.7746 203.203 97.1755Z" fill="#8BC34A"/>
<path d="M282.163 82.6181C282.163 82.9171 282.075 83.2094 281.909 83.458C281.743 83.7066 281.506 83.9003 281.23 84.0147C280.954 84.1291 280.65 84.1591 280.357 84.1008C280.064 84.0424 279.794 83.8985 279.583 83.687C279.371 83.4756 279.227 83.2063 279.169 82.913C279.111 82.6198 279.141 82.3158 279.255 82.0396C279.37 81.7634 279.563 81.5273 279.812 81.3612C280.061 81.1951 280.353 81.1064 280.652 81.1064C281.053 81.1064 281.437 81.2657 281.721 81.5492C282.004 81.8327 282.163 82.2172 282.163 82.6181Z" fill="#FF6E59"/>
<path d="M280.657 5.97603C280.657 6.27501 280.568 6.56728 280.402 6.81588C280.236 7.06447 280 7.25823 279.723 7.37264C279.447 7.48706 279.143 7.51699 278.85 7.45866C278.557 7.40034 278.287 7.25636 278.076 7.04495C277.865 6.83354 277.721 6.56418 277.662 6.27095C277.604 5.97771 277.634 5.67376 277.748 5.39754C277.863 5.12132 278.056 4.88522 278.305 4.71912C278.554 4.55301 278.846 4.46436 279.145 4.46436C279.546 4.46436 279.93 4.62362 280.214 4.90712C280.497 5.19061 280.657 5.57511 280.657 5.97603Z" fill="#102770"/>
<path d="M170.879 188.466C170.879 188.765 170.79 189.057 170.624 189.306C170.458 189.554 170.222 189.748 169.946 189.862C169.669 189.977 169.365 190.007 169.072 189.948C168.779 189.89 168.51 189.746 168.298 189.535C168.087 189.323 167.943 189.054 167.884 188.761C167.826 188.467 167.856 188.164 167.97 187.887C168.085 187.611 168.279 187.375 168.527 187.209C168.776 187.043 169.068 186.954 169.367 186.954C169.768 186.954 170.152 187.113 170.436 187.397C170.719 187.68 170.879 188.065 170.879 188.466Z" fill="#E0E0E0"/>
<path d="M106.754 78.4214C100.334 76.2325 94.3578 70.7093 90.0543 65.4636C85.7508 60.2179 83.4278 53.164 84.7124 46.5027C85.9969 39.8413 91.2729 33.8743 97.9209 32.6338C105.061 31.2998 112.509 35.5656 116.183 41.8296C119.857 48.0936 119.098 57.2401 116.12 63.8742C112.758 71.3557 111.87 73.7762 106.754 78.4214Z" fill="#6154B6"/>
<path d="M109.512 79.241C108.489 78.568 107.665 77.6324 107.127 76.5321L106.612 77.3265C105.997 78.1307 105.704 80.1185 105.671 81.1293C105.665 81.4236 105.735 81.7812 106.003 81.8817C106.271 81.9821 106.589 81.7081 106.713 81.4226C106.791 81.1189 106.936 80.8366 107.138 80.5964C107.162 80.9213 107.256 81.2371 107.416 81.5212C107.488 81.6717 107.614 81.7898 107.769 81.8521C107.924 81.9145 108.097 81.9168 108.254 81.8584C108.41 81.8 108.539 81.6853 108.616 81.5366C108.692 81.388 108.71 81.2162 108.666 81.055C108.603 80.7282 108.464 80.4209 108.26 80.158C108.538 80.4609 108.891 80.6834 109.285 80.8023C109.384 80.8293 109.487 80.8364 109.589 80.8234C109.691 80.8104 109.789 80.7775 109.878 80.7265C109.967 80.6755 110.045 80.6074 110.108 80.5262C110.171 80.445 110.217 80.3522 110.244 80.2531C110.276 79.8095 109.866 79.4901 109.512 79.241Z" fill="#6154B6"/>
<path d="M107.899 77.3427C107.995 77.3891 107.752 77.9089 107.132 78.1415C106.512 78.3741 105.989 78.1567 106.03 78.0616C106.072 77.9664 106.529 77.9826 107.016 77.7883C107.504 77.5939 107.813 77.2853 107.899 77.3427Z" fill="#263238"/>
<path opacity="0.4" d="M115.702 49.1567C115.766 49.4873 115.799 49.8231 115.8 50.1597C115.864 50.8167 115.861 51.7739 115.824 52.9521C115.775 54.3338 115.649 55.7118 115.447 57.0796C115.188 58.7525 114.825 60.4077 114.361 62.0357C113.88 63.6609 113.298 65.2546 112.619 66.8076C112.058 68.0721 111.426 69.3034 110.725 70.4957C110.126 71.511 109.606 72.311 109.212 72.8405C109.027 73.1288 108.814 73.3988 108.577 73.6466C108.718 73.3356 108.889 73.0392 109.088 72.7614C109.445 72.2203 109.926 71.3887 110.495 70.3663C111.064 69.3438 111.68 68.0889 112.299 66.6464C112.952 65.105 113.518 63.5286 113.996 61.9245C114.458 60.3094 114.827 58.6693 115.101 57.0121C115.341 55.4699 115.491 54.0984 115.558 52.9173C115.625 51.7362 115.655 50.7966 115.652 50.1438C115.637 49.8139 115.654 49.4834 115.702 49.1567Z" fill="white"/>
<path opacity="0.4" d="M113.442 41.7525C113.542 41.7427 113.971 42.6122 114.411 43.7539C114.852 44.8957 115.122 45.8515 115.029 45.8859C114.936 45.9202 114.495 45.0317 114.06 43.8894C113.625 42.7472 113.344 41.7923 113.442 41.7525Z" fill="white"/>
<path d="M94.6916 169.994C94.6916 169.994 94.6527 169.907 94.5895 169.726L94.2992 168.929L93.8386 167.632C93.6719 167.117 93.5115 166.509 93.3136 165.83C92.2649 161.977 91.7077 158.006 91.6552 154.013C91.6392 151.255 91.8464 148.501 92.2748 145.776C92.7706 142.647 93.5858 139.576 94.7078 136.613C95.9444 133.338 97.5413 130.211 99.4691 127.289C101.476 124.248 103.831 121.295 105.845 118.061C107.08 116.102 108.073 114.001 108.804 111.803C109.513 109.697 109.812 107.475 109.684 105.257C109.614 104.193 109.403 103.143 109.056 102.134C108.732 101.156 108.193 100.262 107.48 99.5183C106.781 98.8113 105.868 98.3556 104.883 98.2223C104.415 98.1478 103.937 98.1697 103.478 98.2867C103.02 98.4037 102.59 98.6133 102.215 98.9026L102.25 98.8485C102.169 99.0958 102.14 99.3572 102.166 99.6162C102.191 99.8752 102.27 100.126 102.397 100.353C102.662 100.806 103.049 101.175 103.513 101.419C103.948 101.676 104.432 101.839 104.934 101.898C105.436 101.958 105.945 101.911 106.428 101.762C107.322 101.381 108.065 100.714 108.541 99.8654C109.005 99.0635 109.335 98.1918 109.52 97.2841C109.703 96.4308 109.82 95.5646 109.87 94.6933C109.939 93.8511 109.967 93.0385 109.966 92.2538C109.964 88.7895 109.429 85.3462 108.378 82.045C108.161 81.3776 107.985 80.8682 107.856 80.5315L107.717 80.1451C107.698 80.1009 107.685 80.0546 107.678 80.0071C107.678 80.0071 107.993 80.6903 108.447 82.0231C109.091 83.9456 109.552 85.9247 109.823 87.9339C110.021 89.3651 110.125 90.8079 110.133 92.2527C110.134 93.0424 110.112 93.8596 110.048 94.7063C110.002 95.5873 109.887 96.4633 109.706 97.3267C109.521 98.2505 109.187 99.138 108.717 99.9546C108.22 100.839 107.447 101.537 106.516 101.941C106.004 102.102 105.464 102.154 104.931 102.094C104.398 102.035 103.883 101.865 103.419 101.595C102.925 101.325 102.514 100.926 102.228 100.44C102.086 100.186 101.998 99.9051 101.969 99.6151C101.941 99.325 101.973 99.0322 102.064 98.7553L102.061 98.7252L102.091 98.7223C102.49 98.4119 102.948 98.186 103.437 98.0583C103.925 97.9306 104.435 97.9037 104.935 97.9792C105.974 98.1182 106.937 98.5975 107.675 99.3423C108.416 100.111 108.977 101.035 109.316 102.048C109.67 103.077 109.887 104.149 109.961 105.235C110.103 107.493 109.808 109.756 109.092 111.902C108.34 114.106 107.327 116.212 106.073 118.175C104.05 121.466 101.689 124.405 99.6879 127.405C97.7647 130.314 96.1699 133.427 94.9327 136.688C93.8106 139.634 92.9921 142.688 92.4899 145.801C92.0562 148.515 91.8414 151.261 91.8473 154.01C91.8833 157.991 92.4106 161.953 93.4175 165.805C93.6103 166.485 93.7607 167.093 93.9224 167.608C94.0841 168.124 94.2374 168.555 94.3534 168.913L94.6191 169.718C94.6723 169.9 94.6916 169.994 94.6916 169.994Z" fill="#263238"/>
<path d="M206.824 109.078C206.832 109.01 206.847 108.942 206.869 108.877C206.909 108.736 206.96 108.544 207.025 108.302C207.202 107.558 207.312 106.799 207.353 106.035C207.418 104.827 207.337 103.615 207.111 102.427C206.808 100.852 206.329 99.3153 205.685 97.8465C204.892 96.0701 203.962 94.3584 202.903 92.7269C201.785 90.9482 200.505 89.1039 199.26 87.0883C197.909 85.002 196.823 82.7559 196.025 80.4017C195.141 77.8623 194.921 75.1391 195.385 72.4906C195.631 71.1437 196.156 69.8632 196.927 68.7315C197.314 68.174 197.805 67.6966 198.373 67.3257C198.938 66.9542 199.593 66.745 200.268 66.721C200.932 66.6906 201.591 66.8552 202.163 67.1947C202.446 67.3677 202.696 67.5914 202.898 67.8548C202.995 67.987 203.078 68.1288 203.145 68.278C203.18 68.3536 203.216 68.4242 203.246 68.4997L203.306 68.7416C203.444 69.375 203.343 70.0368 203.024 70.601C202.731 71.1473 202.313 71.6169 201.805 71.9716C201.31 72.3232 200.731 72.5386 200.127 72.5964C199.543 72.6336 198.957 72.5477 198.409 72.3444C197.375 71.9342 196.468 71.2559 195.783 70.3793C195.449 69.977 195.152 69.5452 194.896 69.0893C194.771 68.8676 194.665 68.6358 194.559 68.409C194.448 68.1858 194.349 67.957 194.262 67.7238C193.922 66.8424 193.689 65.924 193.566 64.9876C193.368 63.3767 193.472 61.743 193.874 60.1704C194.177 58.9861 194.657 57.8546 195.3 56.8145C195.702 56.1578 196.171 55.5447 196.7 54.9853L197.129 54.5621L197.28 54.426C197.244 54.4841 197.2 54.5367 197.149 54.5822L196.741 55.0206C196.23 55.5901 195.776 56.2077 195.385 56.8649C194.768 57.9058 194.307 59.0313 194.015 60.2057C193.633 61.7612 193.544 63.3743 193.753 64.9624C193.876 65.8828 194.111 66.7847 194.453 67.6482C194.536 67.8777 194.633 68.1015 194.745 68.3183C194.851 68.5401 194.952 68.7668 195.083 68.9835C195.333 69.429 195.623 69.8507 195.95 70.2432C196.608 71.0827 197.478 71.7329 198.469 72.1278C198.988 72.3178 199.541 72.3967 200.092 72.3596C200.656 72.3057 201.195 72.1022 201.654 71.77C202.13 71.4387 202.521 70.9981 202.792 70.4851C203.081 69.9727 203.173 69.3722 203.049 68.797L202.994 68.5854L202.903 68.3839C202.842 68.2508 202.768 68.1241 202.682 68.0059C202.499 67.7683 202.273 67.5667 202.016 67.4113C201.485 67.0986 200.874 66.948 200.258 66.978C199.624 67.032 199.011 67.2321 198.467 67.5625C197.924 67.893 197.464 68.3448 197.124 68.8827C196.371 69.984 195.857 71.2299 195.612 72.541C195.156 75.1473 195.373 77.827 196.242 80.3261C197.03 82.6612 198.103 84.8901 199.437 86.9624C200.671 88.9779 201.956 90.8222 203.055 92.611C204.125 94.2513 205.062 95.9752 205.856 97.7658C206.496 99.2484 206.965 100.798 207.257 102.387C207.469 103.588 207.537 104.812 207.459 106.03C207.405 106.799 207.276 107.562 207.076 108.307L206.894 108.877C206.879 108.947 206.855 109.014 206.824 109.078Z" fill="#263238"/>
<path d="M195.804 53.9928C190.503 48.1426 187.53 39.1381 186.124 31.3681C184.718 23.598 186.325 15.1024 191.395 9.05065C196.464 2.9989 205.186 -0.110116 212.674 2.38919C220.696 5.04974 225.871 13.6159 226.072 22.0712C226.274 30.5266 220.328 39.4152 213.556 44.4793C205.907 50.1985 203.649 52.1788 195.804 53.9928Z" fill="#FF6049"/>
<path d="M198.152 56.3863C197.486 55.1238 197.174 53.7047 197.25 52.2795L196.287 52.7834C195.204 53.2521 193.768 55.1165 193.183 56.1242C193.007 56.4165 192.871 56.8196 193.092 57.0766C193.314 57.3336 193.788 57.2278 194.1 57.0111C194.35 56.7467 194.654 56.5403 194.992 56.4064C194.835 56.753 194.754 57.1294 194.755 57.5099C194.747 57.7028 194.811 57.8918 194.934 58.0405C195.057 58.1892 195.231 58.2871 195.422 58.3152C195.613 58.3434 195.807 58.2999 195.968 58.193C196.129 58.0862 196.244 57.9236 196.292 57.7367C196.411 57.3693 196.442 56.9794 196.383 56.5979C196.495 57.0616 196.73 57.4864 197.063 57.8274C197.232 57.9921 197.459 58.0842 197.695 58.0842C197.932 58.0842 198.159 57.9921 198.328 57.8274C198.6 57.394 198.363 56.8398 198.152 56.3863Z" fill="#FF6049"/>
<path d="M197.577 53.5444C197.668 53.6754 197.123 54.1088 196.337 53.9929C195.551 53.877 195.143 53.3227 195.269 53.2219C195.395 53.1212 195.828 53.3479 196.418 53.4185C197.008 53.489 197.491 53.4235 197.577 53.5444Z" fill="#263238"/>
<path opacity="0.4" d="M221.442 29.2366C221.34 29.6236 221.189 29.9961 220.993 30.3451C220.54 31.3285 220.036 32.2872 219.482 33.2173C215.774 39.4002 210.577 44.5557 204.365 48.2132C203.432 48.7684 202.47 49.273 201.482 49.7248C201.133 49.9164 200.76 50.0637 200.374 50.1632C200.329 50.0725 201.85 49.3217 204.153 47.8655C207.148 45.9629 209.932 43.7468 212.457 41.2544C214.959 38.7528 217.189 35.9928 219.109 33.0208C220.585 30.7482 221.351 29.2366 221.442 29.2366Z" fill="white"/>
<path opacity="0.4" d="M223.326 20.4438C223.482 20.4438 223.452 21.6279 223.25 23.0338C223.049 24.4396 222.747 25.5532 222.605 25.5532C222.464 25.5532 222.479 24.3691 222.676 22.9582C222.873 21.5473 223.19 20.4186 223.326 20.4438Z" fill="white"/>
<path d="M37.0299 52.4148C37.0299 52.4148 30.0433 54.9066 29.496 55.9278C28.9487 56.949 28.6727 58.9914 28.6727 58.9914C28.6727 58.9914 27.2331 61.8049 27.3711 64.0975L26.9111 70.5669C26.9111 70.5669 28.4197 71.9354 29.0361 70.1074L29.243 68.4326C29.7241 67.6411 30.0182 66.7281 30.0985 65.7774C30.0985 65.6089 30.1261 65.4404 30.1353 65.2668C30.1353 65.2668 30.954 65.323 31.437 63.5716C31.9199 61.8202 32.7161 59.3575 32.7161 59.3575L35.3419 57.7149L44.7993 60.2251C44.7993 60.2251 40.0471 52.7161 37.0299 52.4148Z" fill="#FFD1B9"/>
<path d="M64.0946 23.6315L66.5414 24.1622C68.1195 24.5045 69.5985 25.227 70.799 26.3082C72.6354 27.9617 74.4635 30.8494 73.4558 35.4948L72.258 41.0171C72.258 41.0171 69.92 52.954 57.8146 50.3283L54.2124 49.5469L58.2877 44.4514C58.2877 44.4514 62.78 46.5306 65.8709 42.44C66.4033 41.7358 66.7577 40.9124 66.9449 40.0493L68.1128 34.6652C68.3121 33.7462 68.3216 32.7906 68.0892 31.8802C67.8184 30.8157 67.2007 29.6133 65.8146 29.0614L63.044 28.4604L64.0946 23.6315Z" fill="#FFE24A"/>
<g opacity="0.6">
<path opacity="0.6" d="M58.1028 45.6594L58.4895 45.1756C59.3475 45.459 61.2969 45.9207 63.314 45.1614C61.3061 46.2588 59.2325 45.9644 58.1028 45.6594Z" fill="white"/>
</g>
<g opacity="0.6">
<path opacity="0.6" d="M65.8921 48.8862C69.8349 46.293 70.8625 41.3129 70.8747 41.2514L72.0726 35.7292C73.0296 31.3172 71.2581 28.6147 69.6033 27.1249C68.512 26.1422 67.1358 25.4492 65.6236 25.1212L64.4495 24.8665L64.5602 24.356L66.414 24.7581C67.9263 25.0861 69.3024 25.7791 70.3937 26.7617C72.0485 28.2515 73.82 30.9541 72.863 35.366L71.6651 40.8883C71.6519 40.9496 70.6263 45.9301 66.6825 48.5231C66.1754 48.8551 65.637 49.1364 65.075 49.3629C65.3553 49.2181 65.628 49.059 65.8921 48.8862Z" fill="white"/>
</g>
<g opacity="0.2">
<path opacity="0.1" d="M65.4981 42.359C66.001 41.6484 66.3418 40.8221 66.529 39.9589L67.6969 34.5748C67.8962 33.6558 67.9209 32.7035 67.7222 31.8005C67.4888 30.7441 66.9411 29.5568 65.6722 29.0303L67.5529 29.4383C68.8221 29.963 69.371 31.1513 69.6028 32.2084C69.8011 33.1117 69.7765 34.0636 69.5771 34.9826L68.4093 40.3667C68.222 41.2299 67.8813 42.0559 67.3788 42.7669C64.7916 46.4251 61.2721 45.2739 60.5044 44.9648C61.9459 45.0434 63.9003 44.6191 65.4981 42.359Z" fill="black"/>
</g>
<g opacity="0.2">
<path opacity="0.1" d="M63.2802 28.5111L64.3277 23.6819L67.0412 24.2705L65.448 28.9813L63.2802 28.5111Z" fill="black"/>
</g>
<g opacity="0.2">
<path opacity="0.1" d="M72.2598 41.0174L72.6521 39.2089C72.4042 40.3024 69.9893 49.6592 60.2054 48.7241C59.4386 48.6504 59.0542 47.7616 59.5333 47.1588L61.1438 45.131C59.6615 44.952 59.0245 44.6111 59.0245 44.6111L55.8277 47.8928L55.5816 47.8395L54.2149 49.5473L57.8171 50.3287C69.9218 52.9543 72.2598 41.0174 72.2598 41.0174Z" fill="black"/>
</g>
<path d="M25.4045 15.2392L22.9561 14.7081C21.3779 14.3658 19.7328 14.4106 18.1923 14.8972C15.8355 15.6412 12.9753 17.512 11.9676 22.1574L10.7698 27.6797C10.7698 27.6797 7.95395 39.513 20.0573 42.1383L23.6595 42.9197L22.062 36.5936C22.062 36.5936 17.1116 36.6246 15.9933 31.6211C15.8009 30.7596 15.8191 29.8633 16.0064 29.0001L17.1742 23.6161C17.3736 22.6971 17.7612 21.8235 18.3496 21.0912C19.0374 20.2346 20.0978 19.3962 21.588 19.4682L24.3583 20.0691L25.4045 15.2392Z" fill="#FFE24A"/>
<g opacity="0.6">
<path opacity="0.6" d="M21.7298 37.7699L21.5783 37.1693C20.68 37.0718 18.7142 36.6842 17.193 35.1575C18.5664 36.9882 20.5766 37.5797 21.7298 37.7699Z" fill="white"/>
</g>
<g opacity="0.6">
<path opacity="0.6" d="M13.3048 37.4796C10.7908 33.4858 11.919 28.5276 11.9333 28.4665L13.1311 22.9443C14.0881 18.5323 16.8205 16.8067 18.9435 16.1364C20.3438 15.6942 21.8834 15.6336 23.3957 15.9616L24.5698 16.2163L24.6805 15.7057L22.8268 15.3036C21.3145 14.9756 19.7749 15.0362 18.3746 15.4784C16.2515 16.1487 13.5192 17.8743 12.5622 22.2863L11.3644 27.8086C11.3511 27.8698 10.2209 32.8276 12.7359 36.8216C13.06 37.3338 13.4335 37.813 13.8511 38.252C13.6561 38.0039 13.4738 37.7461 13.3048 37.4796Z" fill="white"/>
</g>
<g opacity="0.2">
<path opacity="0.1" d="M16.3685 31.7022C16.2053 30.8471 16.2379 29.9539 16.4251 29.0907L17.593 23.7066C17.7923 22.7876 18.1643 21.9107 18.719 21.171C19.3692 20.3063 20.3595 19.4527 21.7325 19.4993L19.8512 19.0912C18.4786 19.0429 17.4864 19.8969 16.8377 20.763C16.2826 21.5029 15.9107 22.3795 15.7113 23.2985L14.5435 28.6826C14.3562 29.5458 14.3241 30.4387 14.4872 31.2941C15.3259 35.6954 19.0064 36.1059 19.8328 36.1426C18.4887 35.6169 16.8861 34.4211 16.3685 31.7022Z" fill="black"/>
</g>
<g opacity="0.2">
<path opacity="0.1" d="M24.1242 20.0178L25.1717 15.1885L22.4578 14.5999L21.9564 19.5475L24.1242 20.0178Z" fill="black"/>
</g>
<g opacity="0.2">
<path opacity="0.1" d="M10.7699 27.6796L11.1621 25.8712C10.9347 26.9691 9.25614 36.4855 18.5482 39.6882C19.2766 39.9389 19.9947 39.2892 19.8081 38.542L19.1828 36.0292C20.6057 36.4804 21.3271 36.4341 21.3271 36.4341L22.8756 40.7452L23.1216 40.7986L23.6579 42.9192L20.0557 42.1379C7.95232 39.5125 10.7699 27.6796 10.7699 27.6796Z" fill="black"/>
</g>
<path d="M39.2567 70.3029L28.9155 68.0597L34.7265 50.5248L40.8468 51.8523L39.2567 70.3029Z" fill="#FFE24A"/>
<path d="M28.0071 67.221L40.1886 69.8633C40.8931 70.0161 41.508 70.443 41.8979 71.05C42.2879 71.6571 42.421 72.3945 42.2679 73.1002L42.0169 74.2575L24.5225 70.4628L24.7735 69.3055C24.9265 68.5998 25.3532 67.9838 25.9596 67.5929C26.566 67.2019 27.3025 67.0682 28.0071 67.221Z" fill="#FFE24A"/>
<g opacity="0.6">
<path opacity="0.6" d="M26.1453 69.9602C26.2647 69.4128 26.5959 68.935 27.0664 68.6317C27.5369 68.3283 28.1082 68.2241 28.655 68.342L40.8366 70.9843C40.9444 71.0085 41.0503 71.0412 41.153 71.0821C40.8611 70.7676 40.4799 70.5504 40.0608 70.4596L27.8776 67.817C27.331 67.6996 26.7601 67.8041 26.29 68.1075C25.8198 68.4109 25.4889 68.8884 25.3695 69.4355L25.2479 69.9965L26.0974 70.1807L26.1453 69.9602Z" fill="white"/>
</g>
<path d="M22.2586 69.9724L44.2796 74.749C45.8381 75.087 47.1982 76.0313 48.0608 77.3742C48.9234 78.717 49.2178 80.3484 48.8792 81.9094L48.1317 85.3557L14.3581 78.0298L15.1058 74.5825C15.4447 73.0217 16.3886 71.6593 17.7299 70.7947C19.0713 69.9302 20.7003 69.6344 22.2586 69.9724Z" fill="#FFE24A"/>
<g opacity="0.6">
<path opacity="0.6" d="M16.6091 75.4432C17.2419 72.5262 20.1259 70.667 23.0382 71.2987L45.0592 76.0753C45.6823 76.2099 46.2765 76.4544 46.8141 76.7974C46.0844 76.0664 45.1596 75.5616 44.1505 75.3436L22.1295 70.567C19.2172 69.9353 16.3331 71.7945 15.7004 74.7115L15.0821 77.5622L16.1015 77.7833L16.6091 75.4432Z" fill="white"/>
</g>
<path d="M46.9695 9.71798L46.7533 9.6711L27.2293 5.46643L22.2213 28.5545C21.3259 32.6822 21.4251 36.9822 22.6523 41.0226C24.2724 46.3635 28.1134 52.3643 37.0542 54.3863L37.0534 54.3901C37.0901 54.398 37.1254 54.4039 37.1619 54.4115C37.1983 54.419 37.2331 54.4291 37.2695 54.4369L37.2703 54.4332C46.2457 56.2974 52.2277 52.4262 55.9148 48.2375C58.7047 45.0685 60.578 41.1946 61.4729 37.0686L66.481 13.9805L46.9695 9.71798Z" fill="#FFE24A"/>
<g opacity="0.6">
<path opacity="0.6" d="M24.218 41.2366C23.0518 37.3937 22.9072 33.1883 23.7996 29.0745L28.6786 6.58109L47.6071 10.6573L65.722 14.6148L65.7589 14.4446L46.6248 10.2646L27.696 6.18977L22.8171 28.6828C21.9247 32.7966 22.0692 37.0027 23.2355 40.8449C25.054 46.8375 28.7768 50.8946 34.3192 52.9429C29.3173 50.7913 25.9269 46.8683 24.218 41.2366Z" fill="white"/>
</g>
<g opacity="0.2">
<path opacity="0.2" d="M33.0103 21.8527C33.6699 19.6954 33.0957 17.6071 31.7277 17.1885C30.3598 16.7699 28.7161 18.1794 28.0565 20.3367C27.3969 22.494 27.9712 24.5823 29.3391 25.0009C30.707 25.4196 32.3507 24.0101 33.0103 21.8527Z" fill="white"/>
</g>
<g opacity="0.2">
<path opacity="0.1" d="M33.1369 52.4645C33.2189 52.472 33.2993 52.477 33.3818 52.4838C34.4651 52.9129 35.5802 53.2565 36.7171 53.5113C36.7345 53.515 36.7511 53.5186 36.7686 53.5249L36.8165 53.5353L36.8702 53.547C36.8872 53.5507 36.9048 53.5516 36.9228 53.5555C44.0926 55.0448 50.1703 53.0255 54.9868 47.554C57.6404 44.5393 59.5148 40.7718 60.407 36.6584L65.2491 14.3355L46.6246 10.2668L27.6962 6.18992L26.0793 13.6442L26.1872 13.7684L52.8128 20.6614C57.4437 21.8605 60.1808 26.6518 58.8471 31.2536C56.1211 40.6598 48.9699 53.9238 33.1369 52.4645Z" fill="black"/>
</g>
<path d="M66.7996 13.7631L27.0317 5.13703C25.2127 4.74246 23.4177 5.89958 23.0225 7.72153C22.6273 9.54347 23.7815 11.3403 25.6006 11.7349L65.3684 20.3609C67.1874 20.7555 68.9824 19.5984 69.3776 17.7764C69.7728 15.9545 68.6186 14.1576 66.7996 13.7631Z" fill="#FFE24A"/>
<g opacity="0.6">
<path opacity="0.6" d="M24.3561 8.54525C24.5124 7.82873 24.9461 7.20335 25.562 6.80631C26.1779 6.40928 26.9257 6.27301 27.6414 6.42741L67.4104 15.0537C67.73 15.1233 68.0346 15.2497 68.3097 15.4269C67.913 14.8817 67.33 14.5015 66.6715 14.3588L26.9026 5.73257C26.2696 5.59492 25.6082 5.6847 25.0343 5.98619C24.4604 6.28769 24.0106 6.78167 23.7636 7.38166C23.5166 7.98164 23.4881 8.64939 23.6832 9.26797C23.8783 9.88655 24.2845 10.4165 24.8307 10.7651C24.5988 10.4502 24.4365 10.0893 24.3546 9.70655C24.2728 9.32379 24.2733 8.92791 24.3561 8.54525Z" fill="white"/>
</g>
<g opacity="0.2">
<path opacity="0.1" d="M32.8308 55.2959C32.8308 55.2959 34.5257 57.1157 36.5889 57.5086C37.9366 57.7646 37.0277 63.511 35.4705 64.5943C34.0942 65.5511 32.2732 65.9962 29.8758 65.3498L28.8778 67.3025L39.219 69.5457L40.6162 54.3804C40.6162 54.3804 36.879 55.3744 33.5206 53.0446L32.8308 55.2959Z" fill="black"/>
</g>
<g opacity="0.2">
<path opacity="0.1" d="M36.5173 69.2552C36.5173 69.2552 36.0826 72.557 24.7374 69.6627L24.6027 70.2839L42.4709 74.1597L42.3457 72.2764C42.3457 72.2764 42.4216 69.6677 36.5173 69.2552Z" fill="black"/>
</g>
<g opacity="0.2">
<path opacity="0.1" d="M35.6577 73.1872C35.6577 73.1872 35.2993 81.4896 14.6339 77.0071L14.577 77.9339L48.3996 85.2703L49.3274 80.9928C49.3274 80.9928 48.8652 73.8129 35.6577 73.1872Z" fill="black"/>
</g>
<path d="M44.7977 41.549C44.4723 41.4771 44.1784 41.3033 43.9585 41.0527L41.0825 37.8272C41.007 37.7425 40.9066 37.6839 40.7957 37.6599C40.6849 37.6358 40.5692 37.6475 40.4654 37.6933L36.5118 39.4374C36.2078 39.5743 35.8683 39.6108 35.5424 39.5415C35.2963 39.4867 35.0666 39.3745 34.872 39.2141C34.6773 39.0536 34.5232 38.8495 34.4222 38.6181C34.3222 38.3907 34.278 38.1426 34.2932 37.8945C34.3085 37.6464 34.3828 37.4056 34.5099 37.192L36.6867 33.4541C36.744 33.356 36.7687 33.2421 36.7573 33.1291C36.7459 33.016 36.6989 32.9095 36.6232 32.8249L33.7476 29.5994C33.5252 29.3502 33.3873 29.0367 33.3539 28.7041C33.3204 28.3714 33.393 28.0366 33.5613 27.7477C33.7295 27.4587 33.9848 27.2305 34.2904 27.0957C34.5961 26.961 34.9364 26.9266 35.2627 26.9975L39.4834 27.913C39.5942 27.9372 39.7099 27.9256 39.8138 27.8798C39.9176 27.834 40.0043 27.7564 40.0614 27.6581L42.2391 23.9208C42.4073 23.632 42.6624 23.4038 42.9679 23.269C43.2735 23.1342 43.6137 23.0998 43.9399 23.1705C44.266 23.2412 44.5614 23.4136 44.7836 23.6629C45.0058 23.9121 45.1435 24.2255 45.1769 24.558L45.609 28.8618C45.6203 28.9749 45.6671 29.0815 45.7427 29.1662C45.8183 29.251 45.9188 29.3095 46.0298 29.3333L50.2505 30.2488C50.5767 30.3196 50.8721 30.4919 51.0943 30.7412C51.3166 30.9904 51.4543 31.3038 51.4877 31.6364C51.5211 31.969 51.4485 32.3037 51.2804 32.5925C51.1122 32.8814 50.857 33.1096 50.5515 33.2444L46.5975 34.9884C46.4936 35.0341 46.4068 35.1116 46.3497 35.2098C46.2925 35.308 46.2679 35.4218 46.2794 35.5349L46.7115 39.8386C46.7388 40.0856 46.7066 40.3356 46.6177 40.5677C46.5288 40.7997 46.3857 41.0072 46.2005 41.1726C46.0127 41.3415 45.7878 41.4637 45.544 41.5291C45.3002 41.5945 45.0445 41.6013 44.7977 41.549Z" fill="#FFB931"/>
<g opacity="0.6">
<path opacity="0.6" d="M45.2811 29.5134C45.3038 29.7363 45.3963 29.9462 45.5455 30.113C45.6947 30.2798 45.8929 30.395 46.1116 30.442L50.3323 31.3575C50.5922 31.4111 50.8214 31.5629 50.9723 31.7814C50.9644 31.3257 50.6784 30.8759 50.1408 30.7592L45.9201 29.8437C45.6557 29.7861 45.4235 29.629 45.2716 29.4048L45.2811 29.5134Z" fill="white"/>
</g>
<g opacity="0.6">
<path opacity="0.6" d="M35.1527 38.0547L37.3284 34.3166C37.4301 34.1413 37.4795 33.9405 37.4706 33.7381C37.4617 33.5356 37.395 33.34 37.2783 33.1745C37.281 33.3648 37.2322 33.5522 37.1372 33.717L34.9608 37.455C34.8564 37.628 34.805 37.8279 34.8129 38.0298C34.8207 38.2317 34.8875 38.4269 35.005 38.5911C35.0053 38.4023 35.0563 38.217 35.1527 38.0547Z" fill="white"/>
</g>
<g opacity="0.6">
<path opacity="0.6" d="M35.3439 28.1077L39.5646 29.0232C39.7831 29.0711 40.0112 29.0484 40.2161 28.9584C40.421 28.8683 40.5922 28.7157 40.7052 28.5222L42.8815 24.7846C43.2998 24.0667 44.2614 24.1216 44.6685 24.7089L44.6586 24.6119C44.5562 23.5897 43.2074 23.2971 42.6903 24.185L40.5139 27.9226C40.4009 28.116 40.2297 28.2687 40.0248 28.3587C39.8199 28.4487 39.5919 28.4714 39.3734 28.4236L35.1523 27.5081C34.194 27.3002 33.5192 28.3823 34.0591 29.1477C34.0625 28.5265 34.6218 27.9511 35.3439 28.1077Z" fill="white"/>
</g>
<g opacity="0.2">
<path opacity="0.2" d="M43.7931 24.1945L42.0051 32.4377L45.2142 29.4373L44.575 24.1855L43.7931 24.1945Z" fill="black"/>
</g>
<g opacity="0.2">
<path opacity="0.2" d="M42.005 32.4377L35.2462 38.8236L35.7179 39.4559L40.9891 37.3803L42.005 32.4377Z" fill="black"/>
</g>
<g opacity="0.2">
<path opacity="0.2" d="M33.8238 28.8845L42.0052 32.4375L37.405 33.1796L33.8238 28.8845Z" fill="black"/>
</g>
<g opacity="0.2">
<path opacity="0.2" d="M42.0051 32.4377L46.0662 41.341L46.3393 39.2619L45.6538 35.091L42.0051 32.4377Z" fill="black"/>
</g>
<g opacity="0.1">
<path opacity="0.1" d="M42.0051 32.4377L50.4596 32.4101L45.6539 35.0909L42.0051 32.4377Z" fill="black"/>
</g>
<g opacity="0.2">
<path opacity="0.2" d="M68.4446 15.6323C68.4829 15.6956 68.5195 15.7604 68.5528 15.8269C68.5199 15.7601 68.4829 15.6956 68.4446 15.6323Z" fill="black"/>
</g>
<g opacity="0.2">
<path opacity="0.2" d="M68.6824 16.1333C68.7032 16.1918 68.7242 16.2495 68.741 16.31C68.7241 16.2502 68.7032 16.1918 68.6824 16.1333Z" fill="black"/>
</g>
<g opacity="0.2">
<path opacity="0.2" d="M68.5753 15.8767C68.6048 15.9381 68.633 16.0003 68.6577 16.0639C68.6331 15.9996 68.6062 15.9381 68.5753 15.8767Z" fill="black"/>
</g>
<g opacity="0.2">
<path opacity="0.2" d="M68.8349 17.2695C68.8319 17.3046 68.8319 17.3375 68.828 17.372C68.8319 17.3375 68.8321 17.3036 68.8349 17.2695Z" fill="black"/>
</g>
<g opacity="0.2">
<path opacity="0.2" d="M68.7631 16.4021C68.7763 16.4564 68.7906 16.5106 68.8007 16.566C68.7906 16.5106 68.7766 16.455 68.7631 16.4021Z" fill="black"/>
</g>
<g opacity="0.2">
<path opacity="0.2" d="M68.8412 16.968C68.8428 17.0116 68.846 17.0544 68.8455 17.0979C68.8459 17.0551 68.8427 17.0123 68.8412 16.968Z" fill="black"/>
</g>
<g opacity="0.2">
<path opacity="0.2" d="M68.8166 16.6809C68.8237 16.7303 68.831 16.779 68.8364 16.8281C68.832 16.7792 68.8237 16.7303 68.8166 16.6809Z" fill="black"/>
</g>
<g opacity="0.2">
<path opacity="0.1" d="M64.6861 19.4109C65.3181 19.5487 65.9786 19.4596 66.5521 19.1593C67.1255 18.859 67.5756 18.3666 67.8236 17.768C68.0716 17.1694 68.1018 16.5028 67.9089 15.8844C67.716 15.2661 67.3122 14.7355 66.7682 14.3852C66.7342 14.3778 66.7044 14.366 66.6715 14.3589L60.9861 13.1257C60.0384 14.2598 55.2909 16.9917 31.8483 12.2881L64.6861 19.4109Z" fill="black"/>
</g>
<g opacity="0.2">
<path opacity="0.2" d="M24.8698 10.79C25.2737 10.8819 25.671 10.9713 26.0657 11.0594C25.671 10.9713 25.2737 10.8819 24.8698 10.79Z" fill="black"/>
</g>
<g opacity="0.2">
<path opacity="0.2" d="M29.5515 11.816L29.2286 11.7481L29.5515 11.816Z" fill="black"/>
</g>
<g opacity="0.2">
<path opacity="0.2" d="M26.4271 11.1399L27.312 11.3351C27.0195 11.2709 26.7245 11.2058 26.4271 11.1399Z" fill="black"/>
</g>
<g opacity="0.2">
<path opacity="0.2" d="M66.7671 14.385C67.286 14.5169 67.755 14.7976 68.1166 15.1927C67.7553 14.7972 67.2862 14.5164 66.7671 14.385Z" fill="black"/>
</g>
<g opacity="0.2">
<path opacity="0.2" d="M68.1196 15.196C68.1774 15.2586 68.2314 15.3233 68.2818 15.3902C68.2308 15.3229 68.1767 15.2582 68.1196 15.196Z" fill="black"/>
</g>
<g opacity="0.2">
<path opacity="0.2" d="M68.4273 15.6023C68.385 15.5345 68.3397 15.469 68.2918 15.405C68.3396 15.4693 68.385 15.5345 68.4273 15.6023Z" fill="black"/>
</g>
<g opacity="0.2">
<path opacity="0.2" d="M28.5899 11.6119C28.3487 11.5595 28.1054 11.5068 27.8603 11.4536C28.1061 11.508 28.3519 11.561 28.5899 11.6119Z" fill="black"/>
</g>
<path d="M295.526 45.0782C295.414 45.2761 295.277 45.459 295.118 45.6224C294.716 46.0937 294.278 46.5334 293.808 46.9375C293.109 47.5368 292.351 48.0635 291.546 48.5097C291.07 48.7766 290.575 49.0074 290.064 49.2C289.771 49.3107 289.453 49.3334 289.147 49.2655C288.989 49.2206 288.842 49.1431 288.715 49.0382C288.588 48.9332 288.485 48.803 288.411 48.6558C288.272 48.3756 288.207 48.0639 288.224 47.7513C288.241 47.4386 288.338 47.1356 288.507 46.872C288.815 46.4095 289.2 46.0038 289.646 45.6728L291.767 43.9394L293.209 42.7905C293.379 42.6398 293.564 42.5081 293.763 42.3975C293.609 42.5681 293.44 42.7249 293.259 42.8661L291.868 44.0855L289.797 45.8642C289.379 46.1821 289.018 46.5689 288.729 47.0081C288.583 47.2303 288.498 47.487 288.483 47.7524C288.468 48.0178 288.523 48.2825 288.643 48.5198C288.697 48.6399 288.777 48.7471 288.876 48.834C288.975 48.9209 289.092 48.9856 289.218 49.0236C289.473 49.0806 289.739 49.0613 289.984 48.9682C290.48 48.7807 290.963 48.5602 291.43 48.3081C292.228 47.8742 292.986 47.3682 293.692 46.7964C294.165 46.4089 294.616 45.9951 295.043 45.5569C295.193 45.3866 295.355 45.2267 295.526 45.0782Z" fill="#FF9A6C"/>
<path d="M49.8534 64.9517L43.0358 58.4616L36.6615 55.6902L29.8187 57.353C29.8187 57.353 28.7101 58.8294 31.5772 59.4795C33.5575 59.8967 35.5645 60.1745 37.5836 60.3109L39.7605 63.7525L39.485 67.2397C39.1741 71.1758 41.416 74.8694 45.0513 76.4102L51.5515 66.7103L49.8534 64.9517Z" fill="#FFD1B9"/>
<path d="M238.697 84.7044L275.209 47.7439L275.28 48.8021L282.133 57.7058L250.176 104.865L238.697 84.7044Z" fill="#FFD1B9"/>
<path d="M274.786 48.3434C274.786 48.3434 274.6 39.3389 274.786 38.4621C275.219 36.4465 277.049 33.6147 277.396 31.9569C277.744 30.2991 278.127 27.7242 278.127 27.7242C278.554 27.645 278.995 27.713 279.379 27.9171C279.762 28.1212 280.065 28.4493 280.238 28.8478C281.246 30.939 280.042 36.8396 280.042 36.8396C280.042 36.8396 292.185 23.5922 293.062 22.8918C293.939 22.1914 295.773 22.1914 295.859 23.9399C295.945 25.6884 287.242 34.1236 287.509 35.4388C287.172 36.5423 288.028 35.9275 288.028 35.9275C288.028 35.9275 297.098 26.7466 298.872 26.5702C300.646 26.3939 300.711 27.447 300.273 28.8478C299.835 30.2487 290.754 38.2958 290.754 38.2958C290.754 38.2958 294.73 38.8098 293.778 42.3975C293.778 42.3975 295.793 42.8309 295.703 44.7557C295.661 45.3395 295.495 45.9077 295.217 46.4228C294.939 46.9379 294.555 47.3882 294.09 47.7438C294.09 47.7438 285.469 57.3782 284.945 57.8872C284.421 58.3961 281.448 58.6581 281.448 58.6581L274.786 48.3434Z" fill="#FFD1B9"/>
<path d="M292.085 42.9467C292.085 42.9467 292.055 43.0072 291.984 43.1029C291.882 43.2449 291.773 43.3811 291.656 43.5111C291.24 44.0003 290.783 44.4537 290.291 44.8666C289.561 45.4854 288.767 46.0243 287.923 46.474C287.684 46.6016 287.437 46.7226 287.182 46.8368C286.919 46.972 286.639 47.0736 286.35 47.1391C286.028 47.2215 285.685 47.1726 285.398 47.0031C285.117 46.8109 284.916 46.5222 284.834 46.1918C284.746 45.8736 284.746 45.5374 284.834 45.2193C284.929 44.9207 285.081 44.6435 285.282 44.403C285.658 43.9765 286.079 43.5914 286.537 43.2541L288.749 41.4703L290.261 40.2862C290.437 40.1319 290.63 39.9968 290.835 39.8831C290.685 40.0676 290.516 40.2364 290.331 40.3869L288.88 41.6366L286.698 43.4607C286.26 43.7936 285.856 44.1701 285.494 44.5844C285.302 44.7909 285.165 45.0416 285.094 45.3141C285.022 45.5867 285.02 45.8726 285.086 46.1464C285.15 46.4125 285.309 46.6457 285.534 46.8015C285.764 46.9358 286.037 46.9739 286.295 46.9073C286.565 46.846 286.828 46.7529 287.076 46.6302C287.328 46.5193 287.58 46.3984 287.807 46.2775C288.641 45.8527 289.431 45.3463 290.165 44.7658C290.659 44.3666 291.131 43.9393 291.576 43.4859C291.731 43.2933 291.902 43.1131 292.085 42.9467Z" fill="#6D5486"/>
<path d="M294.741 46.4084C294.741 46.4084 294.711 46.4689 294.64 46.5646C294.539 46.7065 294.429 46.8428 294.313 46.9728C293.896 47.462 293.439 47.9154 292.947 48.3282C292.217 48.9471 291.423 49.4859 290.579 49.9356C290.34 50.0633 290.093 50.1842 289.838 50.2984C289.575 50.4337 289.295 50.5353 289.007 50.6008C288.684 50.6832 288.341 50.6343 288.054 50.4647C287.773 50.2725 287.572 49.9839 287.49 49.6535C287.402 49.3353 287.402 48.9991 287.49 48.681C287.585 48.3824 287.738 48.1052 287.938 47.8646C288.315 47.4382 288.735 47.0531 289.193 46.7158L291.405 44.932L292.917 43.7478C293.094 43.5936 293.286 43.4585 293.491 43.3447C293.341 43.5293 293.172 43.6981 292.987 43.8486L291.536 45.0983L289.354 46.9224C288.916 47.2553 288.512 47.6318 288.15 48.046C287.958 48.2526 287.821 48.5033 287.75 48.7758C287.679 49.0484 287.676 49.3343 287.742 49.6081C287.806 49.8741 287.965 50.1073 288.19 50.2632C288.42 50.3975 288.694 50.4356 288.951 50.369C289.222 50.3076 289.484 50.2146 289.732 50.0918C289.984 49.981 290.236 49.8601 290.463 49.7391C291.297 49.3144 292.087 48.808 292.821 48.2274C293.316 47.8283 293.787 47.401 294.232 46.9476C294.387 46.755 294.558 46.5747 294.741 46.4084Z" fill="#6D5486"/>
<path d="M50.0448 65.1079C50.0448 65.1079 75.2849 93.2856 75.2849 93.734C75.2849 94.1825 99.7236 114.898 99.7236 114.898L88.89 132.282L59.4676 99.8866C59.4676 99.8866 42.6023 72.7368 42.6023 72.6764C42.6023 72.6159 50.0448 65.1079 50.0448 65.1079Z" fill="#FFD1B9"/>
<path d="M182.362 76.0978C181.834 70.8977 179.367 66.0871 175.453 62.6231C171.539 59.1591 166.464 57.2956 161.239 57.4034H160.166C148.576 58.3204 142.867 68.6805 144.106 80.2498L147 121L148.274 123.761L164.675 158.026L180.125 132.902L173.388 115.769C173.388 115.769 184.514 113.804 184.423 102.643C184.378 97.2613 183.38 86.1454 182.362 76.0978Z" fill="#FFD1B9"/>
<path d="M173.373 115.774C173.373 115.774 166.358 116.319 158.76 111.743C158.76 111.743 163.527 119.876 174.552 118.677L173.373 115.774Z" fill="#263238" fill-opacity="0.1"/>
<path d="M177.928 87.123C177.942 87.5403 177.791 87.9463 177.508 88.2536C177.225 88.5608 176.833 88.7447 176.416 88.7656C176.213 88.7878 176.008 88.7687 175.812 88.7093C175.617 88.6499 175.436 88.5516 175.279 88.4202C175.123 88.2888 174.995 88.1271 174.903 87.9449C174.811 87.7626 174.756 87.5636 174.743 87.3598C174.731 86.9433 174.882 86.5386 175.165 86.2324C175.447 85.9262 175.839 85.743 176.255 85.7221C176.458 85.6999 176.663 85.7189 176.858 85.778C177.053 85.837 177.234 85.9349 177.39 86.0658C177.546 86.1967 177.675 86.3578 177.767 86.5394C177.859 86.7211 177.914 86.9196 177.928 87.123Z" fill="#263238"/>
<path d="M180.216 82.1899C180.019 82.4015 178.795 81.5298 177.081 81.5701C175.368 81.6104 174.129 82.4973 173.937 82.2907C173.841 82.2 174.038 81.817 174.577 81.4089C175.31 80.8757 176.19 80.585 177.096 80.5774C177.995 80.5515 178.878 80.8146 179.616 81.3282C180.125 81.7213 180.311 82.0942 180.216 82.1899Z" fill="#263238"/>
<path d="M163.068 87.5564C163.08 87.9729 162.929 88.3776 162.646 88.6838C162.364 88.99 161.972 89.1732 161.556 89.1941C161.353 89.2163 161.148 89.1971 160.952 89.1377C160.757 89.0784 160.576 88.98 160.419 88.8487C160.263 88.7173 160.135 88.5556 160.043 88.3733C159.951 88.191 159.896 87.992 159.883 87.7882C159.872 87.3721 160.024 86.9681 160.306 86.6622C160.589 86.3563 160.979 86.1727 161.395 86.1506C161.598 86.1284 161.803 86.1475 161.999 86.2069C162.194 86.2663 162.376 86.3646 162.532 86.496C162.688 86.6274 162.816 86.7891 162.908 86.9713C163.001 87.1536 163.055 87.3526 163.068 87.5564Z" fill="#263238"/>
<path d="M163.804 82.2907C163.607 82.5024 162.383 81.6306 160.669 81.6709C158.956 81.7112 157.712 82.5931 157.525 82.3865C157.429 82.2958 157.621 81.9178 158.165 81.5097C158.898 80.9766 159.779 80.6859 160.685 80.6783C161.583 80.6523 162.466 80.9155 163.204 81.4291C163.708 81.8221 163.894 82.195 163.804 82.2907Z" fill="#263238"/>
<path d="M169.273 94.7177C169.283 94.6382 170.265 94.5887 171.871 94.5762C172.279 94.5812 172.667 94.5499 172.759 94.3064C172.834 93.9341 172.78 93.547 172.605 93.1981L171.703 90.2895C170.465 86.16 169.608 82.7934 169.793 82.7362C169.979 82.679 171.126 86.0144 172.364 90.1481C172.663 91.1671 172.946 92.14 173.212 93.067C173.42 93.5341 173.441 94.0491 173.271 94.5204C173.2 94.6428 173.099 94.7481 172.975 94.8281C172.851 94.9082 172.707 94.9609 172.556 94.9822C172.328 95.0122 172.095 95.0169 171.865 94.9963C170.259 94.8983 169.267 94.7978 169.273 94.7177Z" fill="#6D5486"/>
<path d="M163.723 78.3878C163.526 78.8363 162.045 78.4684 160.246 78.5339C158.447 78.5994 156.966 79.0076 156.774 78.5692C156.689 78.3576 156.981 77.9444 157.601 77.5614C158.405 77.0858 159.317 76.8255 160.251 76.8056C161.172 76.7738 162.085 76.9877 162.897 77.4254C163.516 77.7781 163.809 78.1762 163.723 78.3878Z" fill="#655872"/>
<path d="M179.726 78.4936C179.469 78.9118 178.25 78.6297 176.834 78.7556C175.418 78.8816 174.254 79.2847 173.937 78.9118C173.796 78.7254 173.937 78.3173 174.441 77.9041C175.099 77.3925 175.894 77.0874 176.725 77.0273C177.556 76.9672 178.387 77.1548 179.112 77.5664C179.636 77.9091 179.842 78.2921 179.726 78.4936Z" fill="#655872"/>
<path d="M146.122 91.1137C146.101 90.704 145.997 90.3029 145.816 89.9348C145.635 89.5667 145.381 89.2393 145.069 88.9725C144.758 88.7057 144.395 88.5051 144.003 88.3829C143.612 88.2607 143.2 88.2194 142.791 88.2617C140.715 88.5035 138.423 89.733 138.649 94.0312C139.048 101.655 146.621 99.6799 146.621 99.4582C146.621 99.2365 146.334 94.3034 146.122 91.1137Z" fill="#FFD1B9"/>
<path d="M177.402 100.481C177.402 100.481 177.39 100.578 177.333 100.745C177.25 100.993 177.132 101.232 176.983 101.455C176.422 102.29 175.626 102.973 174.692 103.418C174.005 103.769 173.26 103.988 172.505 104.061C171.749 104.134 171 104.06 170.305 103.842C168.632 103.252 167.295 102.099 166.532 100.593C166.53 100.589 166.528 100.585 166.526 100.581C166.528 100.585 166.53 100.589 166.532 100.593C167.25 102.007 168.9 102.616 170.462 103.192L170.462 103.192C171.107 103.398 171.802 103.475 172.505 103.418C173.207 103.36 173.903 103.17 174.549 102.858C175.443 102.457 176.226 102.086 176.816 101.33C177.235 100.832 177.354 100.469 177.402 100.481Z" fill="#6D5486"/>
<path d="M239.627 83.9565C238.853 82.5998 237.217 81.9947 235.747 82.5218L234.538 82.9552C232.387 83.7263 230.953 85.7649 230.953 88.0496C230.953 89.7928 230.113 91.4294 228.697 92.4459L214.969 102.3L196.381 110.359C195.106 110.806 193.949 111.538 193 112.5L186.787 117.006C185.266 118.108 183.407 118.64 181.533 118.51L174.234 118V126.047C174.234 130.473 173.406 134.861 171.791 138.982C171.274 140.301 170.398 141.449 169.263 142.297L167.132 143.888C165.099 145.405 162.285 145.307 160.363 143.651L159.161 142.616L157 139.5L154.67 135.747L149.5 124.5L147 120.753H144.5H142.741H132.774L118.479 119.81L107.03 114.338L96.7807 108.627C95.1594 107.724 93.1133 108.281 92.1748 109.883L83.4073 124.84C82.0034 127.236 82.2275 130.25 83.9703 132.411C85.1229 133.84 86.8132 134.732 88.6437 134.877L89.677 134.958C91.8186 135.127 93.9056 135.719 95.8177 136.698L109.254 143.581C111.264 144.61 113.133 145.893 114.816 147.397C119.103 151.227 122.023 156.35 123.136 161.99L130.139 197.475L136 218.5L175.592 218.901L214.682 217.28C214.682 217.28 210.187 200.075 209.643 194.054C209.099 188.032 207.814 153.289 207.814 153.289C208.326 146.116 211.692 139.447 217.159 134.774L244.139 111.708C245.82 112.608 247.891 112.319 249.26 110.992L251.052 109.255C252.188 108.154 252.435 106.423 251.651 105.049L239.627 83.9565Z" fill="#6F84C5"/>
<path d="M192.495 57.2371C192.26 56.843 191.882 56.5545 191.44 56.4316C190.484 56.14 189.53 56.4273 188.614 56.6502C186.285 57.1748 183.868 57.1613 181.546 56.6107C182.181 56.0819 182.728 55.456 183.166 54.7563C184.044 53.3015 184.293 51.3356 183.366 49.8941C183.294 49.751 183.189 49.6265 183.061 49.5302C182.932 49.4339 182.784 49.3683 182.626 49.3386C182.121 49.3072 181.819 49.8729 181.581 50.322C180.793 51.7981 179.921 52.5623 178.266 52.7974C177.278 52.9762 176.263 52.9269 175.298 52.6531C175.255 52.6321 175.218 52.6015 175.18 52.5778C174.705 52.2789 174.235 52.0068 173.793 51.7231C170.391 49.6788 167.576 48.3736 164.913 47.9937C161.017 47.4398 154.929 48.3052 151.461 50.1881C147.992 52.071 145.403 55.886 145.818 59.8059C143.312 58.5589 140.196 59.3352 137.916 60.9752L137.842 60.9615C135.271 62.6571 134.413 66.0424 134.267 69.0942C134.257 69.2603 134.261 69.4296 134.254 69.6C133.677 71.352 132.688 72.9402 131.37 74.2312C131.135 74.4539 130.869 74.7244 130.914 75.0462C130.962 75.1998 131.048 75.3386 131.165 75.449C131.282 75.5594 131.426 75.6376 131.582 75.6761C132.38 75.9905 133.237 76.1242 134.093 76.0675C134.01 76.8155 133.86 77.5545 133.644 78.2755C133.441 78.9047 133.237 79.629 133.655 80.1231C133.832 80.2995 134.059 80.4166 134.306 80.4584C134.552 80.5002 134.806 80.4646 135.031 80.3565C135.479 80.1375 135.877 79.8273 136.198 79.4459C136.065 80.2747 135.938 81.1052 135.809 81.9313C136.874 81.8527 137.905 81.5257 138.82 80.9766C140.077 83.5174 141.595 86.779 142.735 88.4321C143.91 88.1384 144.958 87.5914 145.845 88.0681C147.047 88.7108 147.894 90.2727 149.383 89.2403C150.134 88.711 149.32 83.5817 149.383 82.6483C148.986 76.6016 149.105 75.3419 148.986 68.7473C149.853 67.214 151.005 65.8606 152.38 64.7601C154.648 62.4926 157.177 61.9093 160.341 62.6197C162.8 63.1673 164.644 63.6141 166.724 65.024C168.561 66.3369 170.651 67.2524 172.862 67.7119C175.073 68.1714 177.355 68.165 179.563 67.6929C180.762 70.8023 181.42 74.9628 182.323 77.911L183.906 72.4014C184.03 71.9988 184.11 71.6002 184.192 71.2059L184.217 71.0837C184.327 70.4393 184.47 69.801 184.647 69.1715L184.663 69.1972C186.636 70.2344 188.493 67.4583 186.784 66.0262C186.446 65.7387 186.065 65.5065 185.654 65.3384C186.107 65.6017 186.62 65.7443 187.144 65.7525C187.667 65.7608 188.184 65.6344 188.645 65.3856C189.097 65.1166 189.447 64.7066 189.642 64.2187C189.837 63.7309 189.867 63.1923 189.725 62.6862C189.603 62.3498 189.393 62.0521 189.118 61.8237C188.843 61.5952 188.511 61.4442 188.158 61.3862C189.506 61.17 190.758 60.5551 191.753 59.6209C192.409 58.9961 192.982 58.1209 192.495 57.2371Z" fill="#655872"/>
<path d="M143.892 53.4878C144.378 53.5477 144.45 55.0725 145.027 56.7774C145.605 58.4823 146.42 59.785 146.055 60.0939C145.876 60.2366 145.397 60.0748 144.853 59.5905C144.167 58.9564 143.656 58.1562 143.37 57.2672C143.076 56.3936 143.02 55.4575 143.207 54.555C143.367 53.8602 143.665 53.4662 143.892 53.4878Z" fill="#655872"/>
<path d="M153.429 80.1895L168.505 79.9209C168.505 79.9209 170.039 85.575 167.034 88.8439C164.029 92.1127 157.957 90.371 155.922 87.774C153.552 84.772 153.429 80.1895 153.429 80.1895Z" fill="#8569A1"/>
<path d="M171.218 79.8672L185.589 79.4862C185.589 79.4862 186.912 85.1969 184.059 88.4235C181.206 91.65 175.492 89.9151 173.571 87.3525C171.314 84.3735 171.218 79.8672 171.218 79.8672Z" fill="#8569A1"/>
<path d="M167.688 79.9551L171.985 79.8436L172.214 81.0819C171.444 80.7586 170.611 80.6156 169.778 80.6638C168.945 80.712 168.134 80.9501 167.407 81.3599L167.688 79.9551Z" fill="#8569A1"/>
<path d="M155.17 81.3297L167.029 81.0108C167.029 81.0108 168.1 85.5314 165.759 88.0814C163.419 90.6314 158.689 89.2682 157.105 87.2463C155.286 84.8866 155.17 81.3297 155.17 81.3297Z" fill="#6D5486"/>
<path d="M173.114 80.9741L184.304 80.676C184.304 80.676 185.32 85.1322 183.115 87.6411C180.91 90.15 176.451 88.8198 174.942 86.8049C173.21 84.4958 173.114 80.9741 173.114 80.9741Z" fill="#6D5486"/>
<path d="M153.485 80.166L143.31 88.1911C145.326 88.443 145.83 89.9547 145.83 89.9547L154.371 83.4736L153.485 80.166Z" fill="#8569A1"/>
<path d="M177.948 87.6772C177.948 87.6772 178.069 87.7684 178.316 87.8608C178.671 87.9861 179.045 88.0517 179.422 88.055C180.048 88.0536 180.667 87.9197 181.238 87.662C181.809 87.4044 182.318 87.0289 182.734 86.5601C183.541 85.5999 183.986 84.3874 183.992 83.1332C184 82.7605 183.971 82.388 183.904 82.0212C183.888 81.8842 183.849 81.751 183.787 81.6276C183.745 81.6453 183.868 82.2063 183.807 83.1237C183.75 84.3233 183.305 85.4718 182.539 86.3965C182.144 86.8383 181.665 87.197 181.131 87.4516C180.596 87.7061 180.015 87.8515 179.424 87.879C178.926 87.8683 178.431 87.8006 177.948 87.6772Z" fill="white"/>
<path d="M159.73 88.1983C159.848 88.291 159.982 88.3621 160.125 88.4085C160.506 88.563 160.907 88.6622 161.317 88.703C161.999 88.7839 162.691 88.7154 163.345 88.5023C163.998 88.2893 164.597 87.9367 165.101 87.469C165.605 87.0014 166 86.4298 166.261 85.7939C166.522 85.158 166.642 84.4731 166.612 83.7864C166.603 83.375 166.535 82.967 166.411 82.5747C166.378 82.4276 166.318 82.2877 166.236 82.1617C166.354 82.6949 166.421 83.2383 166.436 83.7843C166.442 84.4401 166.311 85.09 166.051 85.6923C165.792 86.2946 165.409 86.836 164.928 87.2817C164.447 87.7275 163.878 88.0677 163.258 88.2807C162.637 88.4937 161.98 88.5747 161.326 88.5185C160.785 88.4609 160.251 88.3538 159.73 88.1983Z" fill="white"/>
</g>
<defs>
<clipPath id="clip0_58_5631">
<rect width="300" height="220" fill="white" transform="translate(0.5)"/>
</clipPath>
</defs>
</svg>
