<svg width="14" height="16" viewBox="0 0 14 16" fill="none" xmlns="http://www.w3.org/2000/svg">
<path fill-rule="evenodd" clip-rule="evenodd" d="M1 4H13L12.1528 14.1661C12.0664 15.2027 11.1999 16 10.1597 16H3.84027C2.80009 16 1.93356 15.2027 1.84717 14.1661L1 4ZM5.5 6C5.77614 6 6 6.22386 6 6.5L6 12.5C6 12.7761 5.77614 13 5.5 13C5.22386 13 5 12.7761 5 12.5V6.5C5 6.22386 5.22386 6 5.5 6ZM9 6.5C9 6.22386 8.77614 6 8.5 6C8.22386 6 8 6.22386 8 6.5V12.5C8 12.7761 8.22386 13 8.5 13C8.77614 13 9 12.7761 9 12.5V6.5Z" fill="#4C4C4C"/>
<path d="M0 2.5C0 2.22386 0.223858 2 0.5 2H13.5C13.7761 2 14 2.22386 14 2.5C14 2.77614 13.7761 3 13.5 3H0.5C0.223857 3 0 2.77614 0 2.5Z" fill="#4C4C4C"/>
<path d="M4 0L10 3.33041e-06V3H9V1H5V3H4V0Z" fill="#4C4C4C"/>
</svg>
