<svg width="19" height="20" viewBox="0 0 19 20" fill="none" xmlns="http://www.w3.org/2000/svg">
<path d="M0.0999756 11.9688C0.0999756 11.2266 0.701593 10.625 1.44373 10.625C2.18586 10.625 2.78748 11.2266 2.78748 11.9688V18.6562C2.78748 19.3984 2.18586 20 1.44373 20C0.701593 20 0.0999756 19.3984 0.0999756 18.6562V11.9688Z" fill="#E1E1E1"/>
<path d="M5.41248 5.28125C5.41248 4.53912 6.01409 3.9375 6.75623 3.9375C7.49836 3.9375 8.09998 4.53912 8.09998 5.28125V18.6562C8.09998 19.3984 7.49836 20 6.75623 20C6.01409 20 5.41248 19.3984 5.41248 18.6562V5.28125Z" fill="#E1E1E1"/>
<path d="M10.7875 7.96875C10.7875 7.22662 11.3891 6.625 12.1312 6.625C12.8734 6.625 13.475 7.22662 13.475 7.96875V18.6562C13.475 19.3984 12.8734 20 12.1312 20C11.3891 20 10.7875 19.3984 10.7875 18.6562V7.96875Z" fill="#E1E1E1"/>
<path d="M16.1 1.34375C16.1 0.601617 16.7016 0 17.4437 0C18.1859 0 18.7875 0.601617 18.7875 1.34375V18.6562C18.7875 19.3984 18.1859 20 17.4437 20C16.7016 20 16.1 19.3984 16.1 18.6562V1.34375Z" fill="#E1E1E1"/>
</svg>
