<svg width="36" height="36" viewBox="0 0 36 36" fill="none" xmlns="http://www.w3.org/2000/svg">
<path d="M13.75 18C13.75 17.2073 13.9684 16.4647 14.3478 15.8288V13.1317H11.6507C10.5803 14.522 10 16.2163 10 18C10 19.7837 10.5803 21.478 11.6507 22.8683H14.3478V20.1711C13.9684 19.5353 13.75 18.7927 13.75 18Z" fill="#FBBD00"/>
<path d="M18 22.25L16.125 24.125L18 26C19.7837 26 21.478 25.4197 22.8683 24.3493V21.655H20.174C19.5326 22.0358 18.7869 22.25 18 22.25Z" fill="#0F9D58"/>
<path d="M14.3479 20.1711L11.6507 22.8683C11.8627 23.1435 12.0934 23.4071 12.3432 23.6569C13.8542 25.1678 15.8631 26 18 26V22.25C16.4493 22.25 15.0901 21.415 14.3479 20.1711Z" fill="#31AA52"/>
<path d="M26 18C26 17.5133 25.9559 17.0257 25.869 16.5507L25.7987 16.1664H18V19.9164H21.7954C21.4268 20.6495 20.8601 21.2477 20.174 21.6551L22.8682 24.3493C23.1435 24.1374 23.4071 23.9066 23.6568 23.6569C25.1678 22.1458 26 20.1369 26 18Z" fill="#3C79E6"/>
<path d="M21.0052 14.9948L21.3367 15.3262L23.9883 12.6746L23.6569 12.3432C22.1459 10.8322 20.1369 10 18 10L16.125 11.875L18 13.75C19.1352 13.75 20.2025 14.1921 21.0052 14.9948Z" fill="#CF2D48"/>
<path d="M18 13.75V10C15.8631 10 13.8541 10.8322 12.3431 12.3431C12.0934 12.5928 11.8626 12.8564 11.6507 13.1317L14.3478 15.8288C15.0901 14.585 16.4492 13.75 18 13.75Z" fill="#EB4132"/>
</svg>
