<svg width="20" height="17" viewBox="0 0 20 17" fill="none" xmlns="http://www.w3.org/2000/svg">
<path fill-rule="evenodd" clip-rule="evenodd" d="M18.8199 16.1423C19.7417 16.1423 20.3065 15.1316 19.8234 14.3465L18.5719 12.3129L1.42808 12.3129L0.176648 14.3465C-0.306461 15.1316 0.258345 16.1423 1.18013 16.1423L18.8199 16.1423ZM8.82173 14.6695C8.64277 14.6695 8.4977 14.8145 8.4977 14.9935C8.4977 15.1724 8.64277 15.3175 8.82173 15.3175H11.2372C11.4161 15.3175 11.5612 15.1724 11.5612 14.9935C11.5612 14.8145 11.4161 14.6695 11.2372 14.6695H8.82173Z" fill="white"/>
<path fill-rule="evenodd" clip-rule="evenodd" d="M2.842 0C2.19126 0 1.66373 0.52753 1.66373 1.17827V11.7827H18.3952V1.17827C18.3952 0.52753 17.8676 0 17.2169 0H2.842ZM3.13657 1.2961C3.00642 1.2961 2.90092 1.4016 2.90092 1.53175V10.3099C2.90092 10.44 3.00642 10.5455 3.13657 10.5455H16.8634C16.9936 10.5455 17.0991 10.44 17.0991 10.3099V1.53175C17.0991 1.4016 16.9936 1.2961 16.8634 1.2961H3.13657Z" fill="white"/>
</svg>
