<svg width="301" height="260" viewBox="0 0 301 260" fill="none" xmlns="http://www.w3.org/2000/svg">
<path d="M114.846 26.4431L40.3519 123.21L240.694 73.4061L129.097 22.851C126.665 21.7513 123.933 21.5078 121.345 22.1601C118.757 22.8124 116.466 24.3221 114.846 26.4431Z" fill="#EBEBEB"/>
<path d="M39.2953 123.898L114.518 26.1848C116.19 23.9809 118.563 22.4125 121.246 21.7382C123.929 21.0639 126.762 21.3239 129.277 22.4753L241.97 73.5234L39.2953 123.898ZM124.206 22.1623C122.456 22.1635 120.73 22.5696 119.163 23.3489C117.597 24.1282 116.232 25.2595 115.175 26.6543L41.4005 122.529L239.442 73.2965L128.941 23.211C127.453 22.5401 125.838 22.1959 124.206 22.2014V22.1623Z" fill="#E0E0E0"/>
<path d="M40.3498 123.237L241.397 73.2594L268.478 182.198C269.014 184.355 268.672 186.637 267.525 188.542C266.379 190.447 264.523 191.818 262.366 192.354L77.594 238.286C75.4368 238.822 73.1548 238.479 71.2502 237.333C69.3456 236.187 67.9743 234.331 67.4381 232.174L40.3574 123.235L40.3498 123.237Z" fill="#F0F0F0"/>
<path d="M229.018 79.205L159.368 150.366L54.0627 126.669L42.0187 70.8313C41.3476 67.9488 41.8373 64.918 43.3821 62.3936C44.9269 59.8691 47.4029 58.0537 50.275 57.3396L202.566 19.5015C204.002 19.1433 205.494 19.0719 206.958 19.2911C208.421 19.5104 209.827 20.0161 211.095 20.7794C212.362 21.5426 213.467 22.5484 214.346 23.7392C215.224 24.9299 215.859 26.2822 216.215 27.7187L229.018 79.205Z" fill="white"/>
<path d="M149.804 144.77L67.1006 231.199C67.3918 232.374 67.9117 233.48 68.6307 234.454C69.3497 235.428 70.2536 236.251 71.2908 236.875C72.328 237.499 73.4781 237.913 74.6753 238.093C75.8725 238.272 77.0934 238.214 78.2681 237.921L261.628 192.32C264 191.73 266.041 190.222 267.301 188.128C268.562 186.034 268.939 183.525 268.35 181.152L268.178 180.464L160.025 142.328C158.267 141.707 156.367 141.607 154.554 142.04C152.741 142.473 151.091 143.421 149.804 144.77Z" fill="#E0E0E0"/>
<path d="M120.338 66.3633L66.8436 79.6714C65.1638 80.0892 64.1408 81.7898 64.5587 83.4696C64.9766 85.1494 66.6771 86.1724 68.3569 85.7545L121.852 72.4464C123.532 72.0286 124.555 70.328 124.137 68.6482C123.719 66.9684 122.018 65.9454 120.338 66.3633Z" fill="#E0E0E0"/>
<path d="M196.389 63.8211L71.0738 94.9959C69.1759 95.4681 68.0201 97.3894 68.4922 99.2873C68.9644 101.185 70.8857 102.341 72.7836 101.869L198.099 70.694C199.997 70.2218 201.152 68.3005 200.68 66.4026C200.208 64.5047 198.287 63.3489 196.389 63.8211Z" fill="#E0E0E0"/>
<path d="M200.57 80.6124L75.255 111.787C73.3571 112.259 72.2013 114.181 72.6734 116.079C73.1456 117.976 75.0669 119.132 76.9648 118.66L202.28 87.4853C204.178 87.0131 205.334 85.0918 204.861 83.1939C204.389 81.296 202.468 80.1402 200.57 80.6124Z" fill="#E0E0E0"/>
<path d="M206.792 102.002C204.081 104.713 200.697 106.653 196.988 107.622L96.1436 133.984C93.208 134.751 90.1297 134.791 87.1751 134.101L77.7147 131.89C77.3771 131.811 77.1034 131.565 76.9894 131.238C76.7936 130.675 77.123 130.067 77.7007 129.923L206.916 97.7821C207.73 97.5797 208.554 98.0743 208.758 98.8877C208.884 99.3897 208.746 99.9212 208.392 100.298L206.792 102.002Z" fill="#E0E0E0"/>
<path d="M179.103 130.2C178.643 130.67 178.062 131.002 177.425 131.161L128.408 143.346L113.125 139.856L175.715 124.285C179.18 123.423 181.599 127.648 179.103 130.2Z" fill="#E0E0E0"/>
<path d="M146.784 147.916C146.784 147.916 146.729 148.002 146.596 148.151L146.001 148.8L143.7 151.25L135.178 160.273C127.962 167.872 117.961 178.374 106.887 189.886C95.8137 201.398 85.6401 211.744 78.229 219.147C74.5195 222.849 71.4988 225.838 69.4014 227.881L66.9832 230.229L66.3415 230.831C66.2746 230.906 66.1983 230.972 66.1146 231.027C66.1724 230.945 66.2379 230.869 66.3102 230.8L66.9206 230.166L69.2684 227.763L77.9942 218.936C85.3662 211.509 95.485 201.124 106.582 189.597C117.679 178.069 127.712 167.684 134.951 160.07L143.559 151.14L145.907 148.73L146.533 148.112L146.784 147.916Z" fill="#FAFAFA"/>
<path d="M268.178 180.464C268.139 180.573 245.076 172.568 216.669 162.582C188.261 152.596 165.26 144.41 165.3 144.3C165.339 144.191 188.402 152.189 216.809 162.206C245.217 172.223 268.218 180.346 268.178 180.464Z" fill="#FAFAFA"/>
<path d="M232.328 75.7772C232.285 75.847 232.235 75.9125 232.179 75.9729L231.702 76.5129L229.847 78.5711L222.945 86.0761C217.083 92.3915 208.929 101.047 199.788 110.493C190.648 119.939 182.25 128.367 176.131 134.424L168.845 141.561L166.841 143.479L166.317 143.972C166.192 144.081 166.129 144.136 166.121 144.128C166.171 144.061 166.226 143.999 166.286 143.94L166.779 143.416L168.727 141.444L175.911 134.213C181.984 128.101 190.342 119.633 199.475 110.195C208.608 100.757 216.802 92.1255 222.718 85.8726L229.761 78.4615L231.616 76.4581L232.125 75.9416C232.186 75.8788 232.254 75.8236 232.328 75.7772Z" fill="#FAFAFA"/>
<path d="M146.784 147.916C146.691 147.911 146.599 147.895 146.51 147.869L145.727 147.681L142.597 146.899C139.92 146.226 136.031 145.279 131.218 144.152C121.6 141.875 108.257 138.94 93.5129 135.747C78.769 132.554 65.4337 129.572 55.8314 127.217C51.0263 126.043 47.1447 125.057 44.4761 124.337L41.4475 123.531L40.6649 123.304C40.5725 123.284 40.483 123.253 40.3988 123.21L40.6727 123.265L41.4553 123.445L44.5465 124.227C47.2308 124.9 51.1202 125.839 55.9331 126.974C65.5511 129.251 78.8864 132.186 93.6381 135.379C108.39 138.572 121.717 141.554 131.32 143.909C136.125 145.083 140.006 146.061 142.675 146.789L145.743 147.627L146.525 147.853L146.784 147.916Z" fill="#FAFAFA"/>
<path d="M229.018 79.205C229.018 79.205 228.939 78.9468 228.806 78.4224L228.235 76.2077C227.734 74.2434 227.006 71.3713 226.067 67.6697L218.187 36.2723C217.775 34.6133 217.349 32.915 216.911 31.1777C216.7 30.3169 216.481 29.4325 216.254 28.5482C216.144 28.1021 216.042 27.6561 215.902 27.2256C215.773 26.7872 215.613 26.3583 215.424 25.9422C214.648 24.1865 213.429 22.6634 211.885 21.5229C210.341 20.3825 208.526 19.6642 206.62 19.4389C205.629 19.315 204.626 19.3282 203.638 19.478C202.652 19.6502 201.651 19.9241 200.641 20.1667L194.498 21.7319L181.679 24.8935L124.597 39.1053L67.4685 53.2858L54.6575 56.4631L51.5663 57.2457C50.551 57.4491 49.5558 57.7425 48.5925 58.1221C47.6581 58.5163 46.7856 59.0434 46.0021 59.6873C45.2235 60.3141 44.5361 61.0464 43.9596 61.8629C43.3912 62.6637 42.9283 63.5343 42.5822 64.4533C42.2584 65.3603 42.0481 66.304 41.9561 67.2628C41.7214 69.1801 42.2535 71.027 42.6292 72.8504C43.4118 76.5025 44.1604 80.0007 44.8752 83.3449C47.7082 96.735 50.0559 107.55 51.6211 115.04C52.4037 118.78 53.0141 121.676 53.4367 123.648C53.6402 124.626 53.7888 125.378 53.8984 125.894C54.008 126.411 54.0393 126.677 54.0393 126.677C54.0393 126.677 53.9688 126.418 53.8515 125.894C53.7341 125.37 53.5697 124.634 53.3506 123.664C52.9124 121.684 52.2785 118.788 51.4567 115.055C49.8211 107.574 47.4656 96.7584 44.5543 83.4075C43.8344 80.0633 43.0752 76.5651 42.277 72.913C41.9014 71.1131 41.3536 69.2036 41.5883 67.2236C41.6835 66.2537 41.8991 65.2995 42.2301 64.3828C42.5876 63.4346 43.0635 62.5353 43.6465 61.7064C44.2395 60.8627 44.9481 60.1066 45.7517 59.4604C46.5563 58.7895 47.4556 58.241 48.4203 57.8326C49.3995 57.4329 50.4133 57.1238 51.4489 56.9091L54.5793 56.1266L67.398 52.9336L124.527 38.7218L181.656 24.5414L194.412 21.3406L200.555 19.8224C201.565 19.572 202.551 19.3059 203.584 19.1259C205.092 18.9006 206.63 18.9783 208.109 19.3545C209.587 19.7308 210.975 20.398 212.192 21.3171C213.741 22.4895 214.964 24.0385 215.745 25.817C215.941 26.2444 216.104 26.6866 216.23 27.1396C216.371 27.5856 216.481 28.0317 216.59 28.4778C216.809 29.3621 217.029 30.2464 217.24 31.1151C217.67 32.8524 218.085 34.5507 218.5 36.2097L226.247 67.6619C227.155 71.3713 227.813 74.2513 228.337 76.2155C228.564 77.1938 228.744 77.9372 228.861 78.4459C228.979 78.9546 229.018 79.205 229.018 79.205Z" fill="#E0E0E0"/>
<path d="M141.517 37.9001L133.777 43.793L134.153 55.0465L127.07 49.4197L123.157 52.7692L108.288 34.4097L141.517 37.9001Z" fill="#FF6049"/>
<path d="M130.874 46.1877C130.874 46.5321 134.153 55.0466 134.153 55.0466L127.07 49.4198L130.874 46.1877Z" fill="#E15541"/>
<path d="M108.288 34.4097L130.866 46.1877L134.153 55.0465L133.777 43.793L108.288 34.4097Z" fill="#E8505B"/>
<path d="M108.288 34.4097L130.866 46.1877L134.153 55.0465L133.777 43.793L108.288 34.4097Z" fill="#CC422E"/>
<path d="M151.01 53.5831C150.315 53.5979 149.624 53.4892 148.967 53.2622C148.279 53.1733 147.611 52.964 146.995 52.644C148.394 52.5851 149.782 52.9099 151.01 53.5831Z" fill="#263238"/>
<path d="M158.561 56.8466C157.884 56.6987 157.238 56.4338 156.652 56.064C156.002 55.812 155.401 55.4492 154.875 54.9918C155.577 55.0617 156.252 55.2949 156.848 55.6727C157.873 56.1892 158.624 56.7448 158.561 56.8466Z" fill="#263238"/>
<path d="M165.096 61.8394C164.478 61.5198 163.917 61.0993 163.437 60.5951C162.584 59.8517 161.872 59.2256 161.974 59.1317C162.636 59.3676 163.234 59.7563 163.719 60.2664C164.619 61.0256 165.206 61.7534 165.096 61.8394Z" fill="#263238"/>
<path d="M170.12 68.3818C170.011 68.4366 169.486 67.6775 168.868 66.7306C168.433 66.19 168.09 65.582 167.851 64.9306C167.945 64.8602 168.594 65.5332 169.228 66.4958C169.671 67.0448 169.977 67.6913 170.12 68.3818Z" fill="#263238"/>
<path d="M172.922 76.1216C172.586 75.5147 172.353 74.8562 172.233 74.173C171.98 73.5253 171.835 72.8406 171.803 72.1461C172.233 72.7057 172.523 73.3606 172.648 74.0556C172.906 74.7117 173 75.4209 172.922 76.1216Z" fill="#263238"/>
<path d="M173.352 84.3231C173.213 83.6435 173.184 82.9459 173.266 82.2571C173.213 81.5649 173.279 80.8686 173.462 80.1989C173.705 80.8587 173.785 81.5674 173.697 82.2649C173.753 82.9688 173.635 83.6758 173.352 84.3231Z" fill="#263238"/>
<path d="M171.2 92.2586C171.288 91.5715 171.487 90.903 171.787 90.2787C171.942 89.6087 172.207 88.9689 172.57 88.3848C172.597 89.0899 172.452 89.7911 172.147 90.4274C171.984 91.1054 171.659 91.7338 171.2 92.2586Z" fill="#263238"/>
<path d="M166.411 98.9262C166.333 98.8401 166.943 98.1436 167.686 97.3062C168.43 96.4688 169.025 95.741 169.126 95.8271C169.228 95.9132 168.774 96.7193 168.007 97.5879C167.24 98.4566 166.489 99.0122 166.411 98.9262Z" fill="#263238"/>
<path d="M159.501 103.363C160.031 102.92 160.628 102.564 161.269 102.307C161.848 101.925 162.485 101.64 163.155 101.462C162.701 102.002 162.121 102.422 161.465 102.683C160.878 103.072 160.202 103.306 159.501 103.363Z" fill="#263238"/>
<path d="M151.463 105.077C152.12 104.857 152.806 104.736 153.498 104.717C154.174 104.571 154.868 104.529 155.556 104.592C154.273 105.167 152.845 105.337 151.463 105.077Z" fill="#263238"/>
<path d="M143.411 103.512C144.1 103.582 144.775 103.754 145.414 104.021C146.092 104.153 146.747 104.388 147.355 104.717C145.956 104.739 144.586 104.317 143.442 103.512H143.411Z" fill="#263238"/>
<path d="M137.706 97.8619C138.115 98.4085 138.489 98.981 138.825 99.5757C139.458 100.491 140.077 101.141 139.991 101.258C139.905 101.376 139.138 100.789 138.472 99.8183C138.003 99.2717 137.732 98.582 137.706 97.8619Z" fill="#263238"/>
<path d="M141.188 91.4603C141.188 91.5855 140.335 91.8516 139.451 92.4933C138.566 93.135 138.073 93.9098 137.964 93.855C137.854 93.8002 138.199 92.8455 139.2 92.149C139.751 91.6742 140.462 91.4278 141.188 91.4603Z" fill="#263238"/>
<path d="M148.263 94.4107C148.153 94.4733 147.652 93.6985 146.838 92.9472C146.024 92.1959 145.195 91.8203 145.273 91.7029C145.998 91.7598 146.673 92.0932 147.159 92.6342C147.725 93.0775 148.116 93.7068 148.263 94.4107Z" fill="#263238"/>
<path d="M148.513 102.401C148.572 101.717 148.7 101.04 148.897 100.382C148.958 99.6998 149.089 99.0259 149.288 98.3706C149.441 99.0601 149.45 99.7737 149.316 100.467C149.181 101.16 148.905 101.819 148.505 102.401H148.513Z" fill="#263238"/>
<path d="M143.184 108.536C143.113 108.435 143.825 107.848 144.678 107.112C145.531 106.376 146.244 105.766 146.306 105.844C146.369 105.922 145.844 106.689 144.96 107.409C144.473 107.929 143.861 108.317 143.184 108.536Z" fill="#263238"/>
<path d="M135.82 112.324C136.337 111.856 136.944 111.496 137.604 111.268C138.209 110.915 138.88 110.691 139.576 110.61C139.052 111.073 138.444 111.429 137.784 111.659C137.181 112.013 136.513 112.239 135.82 112.324Z" fill="#263238"/>
<path d="M128.455 116.034C128.393 115.94 129.136 115.376 130.122 114.789C130.7 114.387 131.36 114.119 132.055 114.007C132.11 114.124 131.312 114.601 130.334 115.165C129.773 115.579 129.134 115.875 128.455 116.034Z" fill="#263238"/>
<path d="M122.21 121.425C122.124 121.347 122.664 120.58 123.486 119.782C124.308 118.984 125.051 118.444 125.161 118.538C125.27 118.632 124.597 119.32 123.791 120.103C122.985 120.885 122.304 121.512 122.21 121.425Z" fill="#263238"/>
<path d="M117.476 128.164C117.603 127.472 117.892 126.82 118.321 126.262C118.923 125.284 119.542 124.579 119.643 124.65C119.099 125.922 118.368 127.106 117.476 128.164Z" fill="#263238"/>
<path d="M114.447 135.825C114.525 134.431 114.968 133.082 115.731 131.912C115.689 132.607 115.522 133.288 115.237 133.923C115.088 134.599 114.821 135.243 114.447 135.825Z" fill="#263238"/>
<path d="M113.359 143.995C113.083 142.622 113.183 141.2 113.649 139.879C113.766 140.563 113.766 141.261 113.649 141.945C113.668 142.64 113.57 143.333 113.359 143.995Z" fill="#263238"/>
<path d="M114.424 152.158C114.072 151.55 113.85 150.876 113.774 150.178C113.544 149.514 113.487 148.803 113.61 148.112C113.904 148.741 114.102 149.411 114.197 150.099C114.409 150.763 114.486 151.463 114.424 152.158Z" fill="#263238"/>
<path d="M143.997 177.538C143.295 177.553 142.598 177.422 141.949 177.153C141.257 177.034 140.607 176.741 140.06 176.301C140.753 176.346 141.436 176.496 142.084 176.745C142.769 176.879 143.419 177.148 143.997 177.538Z" fill="#263238"/>
<path d="M117.593 159.757C117.081 159.278 116.685 158.689 116.435 158.035C116.059 157.44 115.831 156.764 115.77 156.063C116.216 156.592 116.571 157.193 116.818 157.839C117.19 158.427 117.452 159.076 117.593 159.757Z" fill="#263238"/>
<path d="M152.183 178.424C151.517 178.642 150.81 178.705 150.116 178.609C149.414 178.651 148.711 178.525 148.068 178.241C148.746 178.105 149.443 178.084 150.129 178.179C150.823 178.136 151.519 178.22 152.183 178.424Z" fill="#263238"/>
<path d="M122.531 166.362C122.445 166.44 121.749 165.837 120.966 164.961C120.183 164.084 119.745 163.278 119.847 163.208C119.949 163.137 120.559 163.818 121.295 164.687C122.03 165.556 122.617 166.276 122.531 166.362Z" fill="#263238"/>
<path d="M160.35 177.281C160.377 177.395 159.513 177.714 158.368 177.978C157.223 178.241 156.306 178.236 156.293 178.113C156.28 177.99 157.171 177.783 158.287 177.557C159.402 177.332 160.316 177.165 160.35 177.281Z" fill="#263238"/>
<path d="M128.878 171.597C128.199 171.407 127.573 171.065 127.047 170.595C126.123 169.915 125.482 169.242 125.544 169.156C126.192 169.412 126.789 169.783 127.305 170.251C128.213 170.948 128.941 171.519 128.878 171.597Z" fill="#263238"/>
<path d="M167.997 174.244C167.503 174.748 166.901 175.131 166.236 175.366C165.195 175.847 164.296 176.085 164.25 175.988C164.787 175.544 165.4 175.2 166.059 174.974C167.107 174.514 167.958 174.152 167.997 174.244Z" fill="#263238"/>
<path d="M136.297 175.181C135.595 175.176 134.905 175.001 134.286 174.673C133.61 174.476 132.991 174.122 132.478 173.64C133.164 173.736 133.829 173.951 134.442 174.274C135.108 174.468 135.735 174.775 136.297 175.181Z" fill="#263238"/>
<path d="M174.713 169.472C174.37 170.084 173.885 170.605 173.298 170.989C172.8 171.486 172.191 171.858 171.521 172.075C171.937 171.52 172.445 171.041 173.024 170.66C173.515 170.17 174.086 169.769 174.713 169.472Z" fill="#263238"/>
<path d="M62.679 68.3505C61.8845 71.4822 60.1794 74.3081 57.7792 76.471C55.3791 78.6339 52.3916 80.0367 49.1943 80.5021C45.9971 80.9676 42.7336 80.4747 39.8164 79.0859C36.8992 77.6971 34.4592 75.4746 32.8048 72.6994C31.1504 69.9241 30.3558 66.7207 30.5215 63.4941C30.6872 60.2674 31.8058 57.1622 33.7358 54.5711C35.6658 51.98 38.3207 50.0192 41.3648 48.9365C44.409 47.8538 47.7058 47.6979 50.8385 48.4884C52.9203 49.0148 54.878 49.9462 56.5998 51.2293C58.3216 52.5125 59.7737 54.1222 60.8732 55.9667C61.9728 57.8111 62.6982 59.8541 63.008 61.9789C63.3179 64.1038 63.2061 66.2689 62.679 68.3505Z" fill="#51BC6F"/>
<path d="M52.8967 55.4692C53.1862 55.5866 51.3315 61.0568 48.749 67.6932C48.3655 68.6557 48.0055 69.5792 47.6455 70.487L47.4499 70.98L46.9256 70.7922C41.6274 68.7497 37.7536 67.0671 37.8476 66.8245C37.9415 66.5819 41.964 67.8497 47.3012 69.7827L46.6125 70.0957C46.9569 69.1879 47.3169 68.2566 47.6847 67.294C50.2907 60.6577 52.615 55.3596 52.8967 55.4692Z" fill="white"/>
</svg>
