<svg width="300" height="207" viewBox="0 0 300 207" fill="none" xmlns="http://www.w3.org/2000/svg">
<mask id="mask0_62_4593" style="mask-type:alpha" maskUnits="userSpaceOnUse" x="0" y="0" width="300" height="207">
<path d="M270.239 35.2545C295.641 70.076 317.52 138.622 277.275 177.315C248.095 205.369 210.881 207.047 170.21 206.999C97.8254 206.913 10.5254 202.231 1.35336 133.394C-4.51999 89.314 20.1468 29.8421 68.4806 29.8421C152.812 29.8421 214.775 -40.7771 270.239 35.2545Z" fill="#6592E9"/>
</mask>
<g mask="url(#mask0_62_4593)">
<path d="M258.086 72.1263C257.723 66.4216 255.325 60.9777 251.965 56.3643C250.276 54.0425 248.284 51.7812 247.679 48.9684C246.88 45.2219 248.654 40.9177 246.613 37.6804C245.172 35.3949 242.26 34.4431 240.62 32.3032C238.858 29.9995 238.9 26.8471 237.859 24.113C236.817 21.3789 233.306 19.0813 231.163 21.0273C230.745 15.935 231.574 13.0736 227.228 10.388C222.881 7.70244 214.338 8.99976 212.661 13.8496C208.974 10.7214 202.229 7.75093 197.991 10.0243C195.376 11.4307 193.366 13.7344 190.932 15.4379C187.148 18.0932 182.541 19.1844 178.321 21.0455C174.101 22.9066 169.93 25.9741 168.931 30.5027C168.211 33.8248 169.373 37.3288 168.755 40.6752C168.235 43.4941 166.515 45.913 165.196 48.4531C164.086 50.5812 163.241 52.8369 162.677 55.1701C161.575 59.7168 162.187 65.579 166.431 67.5492C164.896 67.9791 163.562 68.9379 162.664 70.2565C161.767 71.5752 161.363 73.1689 161.524 74.7565C161.686 76.3441 162.402 77.8237 163.547 78.9341C164.691 80.0445 166.191 80.7144 167.781 80.8256C165.403 85.142 163.026 89.4583 160.649 93.7746C159.983 94.9871 159.299 96.3026 159.523 97.6545C159.837 99.5338 161.878 100.728 163.761 100.746C165.644 100.764 167.46 99.9097 169.167 99.0731C169.769 100.206 170.674 101.149 171.782 101.794C172.89 102.439 174.155 102.762 175.436 102.725C176.717 102.689 177.963 102.294 179.032 101.587C180.101 100.88 180.952 99.8871 181.488 98.7215C182.208 100.051 183.273 101.163 184.569 101.94C185.866 102.717 187.347 103.13 188.858 103.138C190.369 103.145 191.855 102.746 193.159 101.982C194.463 101.218 195.538 100.117 196.272 98.7942L210.766 95.46L218.013 93.7928L228 94.9998L231.717 92.8759C233.801 91.6851 236.301 91.4643 238.561 92.2716C240.828 93.0812 243.241 93.4032 245.641 93.2163L247.122 93.1009C250.288 92.8099 253.83 89.3189 255.767 86.797C257.027 85.148 257.317 82.9838 257.584 80.9226C258.017 78.0118 258.185 75.0676 258.086 72.1263Z" fill="#705F82"/>
<path d="M207.472 152.409L193.481 115.241L200.746 107.966L200.456 105.626C199.668 99.7763 199.372 97.3756 199.372 97.4302C199.372 97.4847 186.797 96.9028 182.25 81.0742C179.992 73.1932 178.775 60.0199 178.133 49.1927C177.528 39.4445 182.486 26.7622 192.24 26.6228L223.226 30.5148C224.661 30.4897 226.052 31.0066 227.124 31.9626C228.195 32.9186 228.868 34.2436 229.007 35.6738L234.365 100.898L238.47 104.414L243.398 149.572L207.472 152.409Z" fill="#FFD1B9"/>
<path d="M196.966 83.6817C196.966 83.6817 197.083 83.7678 197.323 83.8739C197.677 84.0346 198.254 84.2437 198.649 84.3066C200.127 84.5411 201.678 84.3636 203.108 83.7963C204.186 83.4025 205.179 82.812 206.023 82.0625C206.868 81.313 207.545 80.421 208.013 79.443C209.061 77.0222 208.962 74.3028 208.092 71.9462C208.089 71.9395 208.087 71.9327 208.084 71.9259C208.087 71.9327 208.089 71.9395 208.092 71.9462C208.907 74.1614 208.162 76.8181 207.209 79.1039C206.781 80.0157 206.161 80.851 205.387 81.5588C204.613 82.2666 203.701 82.8321 202.707 83.2209C201.365 83.7896 199.906 84.0254 198.484 83.9033C197.517 83.8549 197 83.6177 196.966 83.6817Z" fill="#655872"/>
<path d="M184.232 61.6808C184.373 62.1017 184.804 62.4546 185.436 62.6651C186.067 62.8756 186.849 62.9272 187.617 62.8091C187.997 62.7601 188.365 62.6693 188.699 62.5423C189.034 62.4152 189.328 62.2542 189.565 62.069C189.802 61.8837 189.977 61.6777 190.08 61.4632C190.183 61.2487 190.211 61.03 190.163 60.8198C190.023 60.3998 189.593 60.0476 188.963 59.837C188.334 59.6265 187.554 59.574 186.787 59.6907C186.408 59.7403 186.04 59.8314 185.706 59.9587C185.371 60.0859 185.077 60.2468 184.839 60.4319C184.602 60.617 184.426 60.8227 184.321 61.0371C184.217 61.2515 184.187 61.4703 184.232 61.6808Z" fill="#655872"/>
<path d="M205.864 59.6091C205.961 60.0413 206.352 60.4358 206.957 60.7097C207.561 60.9835 208.332 61.1156 209.106 61.078C209.489 61.0687 209.865 61.0165 210.212 60.9246C210.559 60.8327 210.869 60.7028 211.125 60.5427C211.38 60.3825 211.576 60.1953 211.701 59.9921C211.826 59.7889 211.876 59.5738 211.85 59.3594C211.754 58.9272 211.362 58.5328 210.758 58.2589C210.153 57.985 209.383 57.853 208.608 57.8906C208.225 57.8992 207.848 57.9509 207.501 58.0426C207.154 58.1343 206.843 58.2642 206.587 58.4245C206.331 58.5848 206.135 58.7722 206.011 58.9757C205.887 59.1792 205.837 59.3946 205.864 59.6091Z" fill="#655872"/>
<path d="M181.827 56.7646C182.117 57.001 183.54 55.6491 185.762 55.3824C187.984 55.1157 189.746 56.025 189.957 55.7219C190.06 55.5885 189.74 55.1156 188.965 54.7034C187.922 54.1551 186.736 53.9433 185.568 54.0972C184.41 54.2323 183.326 54.7359 182.474 55.5339C181.857 56.1402 181.687 56.6555 181.827 56.7646Z" fill="#655872"/>
<path d="M203.906 54.9457C204.197 55.1822 205.62 53.8303 207.842 53.5635C210.064 53.2968 211.831 54.2061 212.037 53.903C212.14 53.7697 211.819 53.2968 211.044 52.8846C210.002 52.3362 208.815 52.1245 207.648 52.2783C206.49 52.4135 205.405 52.917 204.554 53.7151C203.937 54.3213 203.767 54.8366 203.906 54.9457Z" fill="#655872"/>
<path d="M200 72.6574C200 72.5643 198.553 72.5155 196.229 72.5066C195.61 72.5066 195.079 72.5066 194.936 72.2093C194.811 71.7836 194.871 71.3405 195.109 70.9403L196.278 67.6215C197.885 62.9049 198.967 59.0448 198.702 59.0004C198.436 58.956 196.921 62.7452 195.32 67.4617C194.936 68.6242 194.572 69.7349 194.225 70.7939C194.083 71.2864 193.799 71.8544 194.225 72.4533C194.335 72.5923 194.487 72.7116 194.67 72.8023C194.853 72.893 195.063 72.9527 195.283 72.9769C195.615 73.0077 195.952 73.0077 196.284 72.9769C198.578 72.8704 200.006 72.7551 200 72.6574Z" fill="#655872"/>
<path opacity="0.1" d="M199.39 97.4122C206.983 96.5987 214.202 93.6945 220.247 89.022C220.247 89.022 216.209 100.928 199.911 101.407L199.39 97.4122Z" fill="black"/>
<path d="M227.227 55.8128C227.433 55.6794 235.806 51.7632 236.914 60.7656C238.022 69.7681 228.735 69.0164 228.693 68.7497C228.65 68.4829 227.227 55.8128 227.227 55.8128Z" fill="#FFD1B9"/>
<path d="M232.01 51.4357C231.774 45.3371 231.514 39.105 229.328 33.4004C228.911 32.0778 228.163 30.8841 227.155 29.9328C226.256 29.257 225.224 28.7797 224.128 28.5324C222.433 28.0535 221.972 26.9017 220.223 26.7744C213.575 21.1243 204.046 19.1905 195.57 21.4699C187.094 23.7493 179.962 30.0844 176.317 38.0441C172.727 46.1447 172.466 55.3351 175.591 63.6269C175.028 57.1342 179.126 51.0598 184.164 46.9314C189.201 42.803 195.207 40.0629 200.51 36.3164C200.463 37.22 200.222 38.1028 199.804 38.9051C199.387 39.7073 198.801 40.4103 198.088 40.9662C202.29 39.8325 206.564 38.6807 210.348 36.5892C211.216 36.1331 212.055 35.6249 212.861 35.0676C212.948 36.0577 213.221 37.0224 213.666 37.9108C215.095 40.7055 218.14 42.1968 220.465 44.3004C220.767 44.5379 221.01 44.8431 221.173 45.1916C221.318 45.7668 221.28 46.3729 221.064 46.9254C220.467 48.7366 220.261 50.6541 220.459 52.5512C220.743 54.4305 221.797 56.2855 223.486 57.0979C222.857 58.0911 222.552 59.2562 222.615 60.4307C222.678 61.6053 223.105 62.731 223.837 63.6512C224.033 63.9317 224.323 64.1319 224.654 64.215C225.205 64.2999 225.666 63.8149 225.98 63.3602C226.91 62.0186 227.547 60.4964 227.851 58.8923C227.897 58.2087 228.105 57.5459 228.457 56.9584C229.062 56.1825 230.188 56.0248 230.933 55.3762C232.035 54.4668 232.065 52.8482 232.01 51.4357Z" fill="#705F82"/>
<path d="M202.69 146.031L247.733 144.486L251.911 206.084L212.497 206.63L202.69 146.031Z" fill="white"/>
<path d="M237.744 100.261C238.349 99.4916 271.944 122.31 273.464 125.038C274.984 127.766 283.066 206.63 283.066 206.63H239.16C239.16 206.63 235.128 141.685 235.34 135.702C235.552 129.718 237.744 100.261 237.744 100.261Z" fill="#6F84C5"/>
<path d="M136.45 207C136.45 207 131.491 196.797 132.042 191.844C132.593 186.891 136.45 176.925 136.45 176.925L146.361 159.284C146.361 159.284 148.34 144.576 149.442 141.824C150.544 139.072 156.344 120.412 163.222 116.029C170.099 111.646 190.962 108.645 190.962 108.645L200.207 101.771C200.207 101.771 209.404 128.96 210.778 136.405C212.152 143.849 219.859 206.963 219.859 206.963L136.45 207Z" fill="#6F84C5"/>
<g opacity="0.3">
<path opacity="0.3" d="M178.079 206.085C182.531 203.442 187.533 201.865 192.694 201.477C196.66 201.186 200.752 201.592 204.536 200.362C208.774 198.986 212.11 195.73 215.276 192.584C216.208 191.789 216.94 190.786 217.414 189.656C217.795 188.498 217.48 187.007 216.39 186.449C215.555 186.024 214.574 186.249 213.642 186.497C200.283 190.195 187.901 196.789 177.371 205.812" fill="black"/>
</g>
<g opacity="0.3">
<path opacity="0.3" d="M167.333 138.981C166.721 138.097 166.964 137.324 166.093 136.696C165.795 136.436 165.421 136.28 165.027 136.252C164.634 136.224 164.242 136.326 163.91 136.541C163.579 136.756 163.327 137.073 163.192 137.445C163.057 137.816 163.047 138.221 163.162 138.599C163.322 139.271 163.59 139.912 163.955 140.497C167.829 147.624 169.393 155.39 170.523 163.424C171.008 166.856 171.226 170.329 171.97 173.73C172.715 177.131 173.466 179.689 175.827 182.217L176.789 181.811C176.681 180.9 176.524 179.995 176.317 179.101C173.163 165.928 170.402 152.779 167.333 138.987" fill="black"/>
</g>
<g opacity="0.3">
<path opacity="0.3" d="M263.991 144C263.132 153.336 260.625 162.441 259.517 171.753C258.409 181.065 258.815 190.952 263.392 199.13C264.93 201.883 267.103 204.514 270.118 205.429C266.528 201.113 264.76 195.517 264.112 189.94C263.465 184.363 263.846 178.719 264.112 173.111C264.544 163.411 264.56 153.712 264.161 144.012" fill="black"/>
</g>
<path d="M250.173 108.421C250.173 108.451 249.743 108.506 248.962 108.7C247.884 108.973 246.837 109.357 245.838 109.846C245.145 110.176 244.475 110.555 243.834 110.979C243.103 111.467 242.465 112.083 241.951 112.798C241.398 113.577 241.117 114.517 241.152 115.472C241.178 115.978 241.326 116.471 241.582 116.908C241.854 117.337 242.242 117.677 242.702 117.89C243.158 118.109 243.668 118.185 244.167 118.109C244.408 118.074 244.639 117.991 244.847 117.865C245.055 117.739 245.236 117.572 245.378 117.375C245.629 116.985 245.77 116.533 245.786 116.069C245.802 115.605 245.693 115.145 245.469 114.738C245.257 114.368 244.969 114.048 244.625 113.797C244.281 113.546 243.888 113.371 243.471 113.283C242.734 113.115 241.968 113.128 241.237 113.319C240.175 113.639 239.185 114.164 238.325 114.865C238.014 115.133 237.688 115.384 237.35 115.617C237.414 115.532 237.487 115.455 237.568 115.387C237.72 115.241 237.944 115.029 238.252 114.78C239.102 114.026 240.1 113.458 241.183 113.113C241.948 112.899 242.754 112.874 243.532 113.041C243.988 113.132 244.42 113.319 244.799 113.59C245.177 113.86 245.495 114.208 245.729 114.611C245.982 115.067 246.106 115.583 246.088 116.104C246.069 116.625 245.91 117.132 245.626 117.569C245.464 117.797 245.258 117.991 245.02 118.139C244.781 118.287 244.517 118.386 244.24 118.43C243.677 118.523 243.1 118.438 242.587 118.187C242.069 117.95 241.633 117.564 241.334 117.078C241.059 116.607 240.902 116.077 240.874 115.532C240.839 114.508 241.146 113.501 241.746 112.671C242.286 111.948 242.955 111.332 243.719 110.852C244.375 110.43 245.061 110.057 245.772 109.737C246.792 109.258 247.865 108.9 248.968 108.67C249.268 108.606 249.571 108.56 249.877 108.53C249.971 108.483 250.07 108.446 250.173 108.421Z" fill="white"/>
<g opacity="0.3">
<path opacity="0.3" d="M237.175 107.015C244.01 110.343 252.31 110.537 258.395 115.065C261.937 117.691 264.381 121.539 265.254 125.865C266.127 130.19 265.368 134.686 263.123 138.484C262.681 134.622 261.912 130.245 258.655 128.178C257.226 127.275 255.519 126.966 253.933 126.359C252.117 125.711 250.5 124.704 248.69 124.128C246.268 123.352 243.598 123.377 241.158 122.577C238.718 121.776 236.357 119.691 236.539 117.12L237.175 107.015Z" fill="black"/>
</g>
<path d="M263.032 137.429L262.058 125.238C262.058 125.238 255.459 123.959 253.116 122.467C250.773 120.976 246.456 117.89 246.456 117.89C246.456 117.89 245.421 121.613 243.289 121.825L241.37 122.037L241.304 114.514C241.304 114.514 240.94 117.89 238.174 118.412C237.568 118.533 237.568 118.412 237.568 118.412L235.697 108.585C235.697 108.585 233.482 111.458 229.431 109.537C229.431 109.537 235.994 98.0849 237.302 97.6606C238.61 97.2362 245.481 97.0543 245.481 97.0543C245.481 97.0543 255.065 96.4481 256.131 96.8664C257.196 97.2847 258.685 98.9761 258.685 98.9761C258.685 98.9761 269.977 109.858 273.603 113.483C276.448 116.512 278.362 120.295 279.119 124.383C279.331 126.305 280.935 134.295 280.935 134.295" fill="#FFD1B9"/>
<path d="M241.851 103.104L259.263 112.732C260.637 113.493 261.135 115.223 260.375 116.597C259.615 117.972 257.885 118.47 256.51 117.71L239.099 108.081L241.851 103.104Z" fill="#263238"/>
<path d="M225.826 101.23C239.017 107.396 244.833 101.099 240.769 107.526C239.05 110.244 232.062 109.746 224.48 106.033C216.898 102.32 213.245 97.4774 213.694 94.2535C217.834 84.9553 214.839 95.1829 225.826 101.23Z" fill="#263238"/>
<path fill-rule="evenodd" clip-rule="evenodd" d="M243.095 103.497C244.552 100.631 239.633 95.2055 232.107 91.3804C224.581 87.5553 217.425 87.2537 215.967 90.1206C210.042 97.225 216.849 100.566 223.762 103.958C224.516 104.328 225.271 104.698 226.01 105.074C233.536 108.899 241.638 106.364 243.095 103.497ZM238.838 101.334C239.84 99.3624 236.458 95.6321 231.283 93.0019C226.108 90.3717 221.101 89.8376 220.099 91.809C219.097 93.7804 222.479 97.5107 227.654 100.141C232.829 102.771 237.836 103.305 238.838 101.334Z" fill="#263238"/>
<ellipse opacity="0.5" cx="229.469" cy="96.5714" rx="4.00407" ry="10.5107" transform="rotate(-63.0572 229.469 96.5714)" fill="white"/>
<path d="M237 98C235.8 99.6 231.5 106.333 229.5 109.5L230.735 109.809C232.48 110.245 234.33 109.855 235.75 108.75L236 109.5L239 113L250.5 114.5C251.3 112.5 255.5 110.667 257.5 110L261.5 111L270.5 114L256 97L238 97.5L237 98Z" fill="#FFD1B9"/>
<path d="M280.935 134.295C280.935 134.295 280.935 134.234 280.886 134.101C280.838 133.968 280.808 133.762 280.753 133.495C280.644 132.961 280.481 132.185 280.275 131.185C280.069 130.185 279.833 128.924 279.548 127.469C279.415 126.735 279.27 125.953 279.137 125.111C279.064 124.686 279.028 124.25 278.937 123.813C278.846 123.377 278.731 122.928 278.598 122.468C277.991 120.464 277.122 118.55 276.013 116.775C275.385 115.775 274.665 114.835 273.863 113.968C273.022 113.083 272.077 112.222 271.145 111.301L258.534 99.1035C258.155 98.6755 257.751 98.2706 257.323 97.8911C256.921 97.4944 256.438 97.1903 255.907 96.9999C255.331 96.924 254.75 96.8915 254.169 96.9029C253.564 96.9029 252.958 96.9029 252.353 96.9029C249.931 96.9575 247.461 97.109 244.924 97.2303C243.665 97.2666 242.389 97.3172 241.098 97.3818C240.456 97.4243 239.808 97.4606 239.166 97.5213C238.528 97.5562 237.893 97.6496 237.272 97.8001C237.024 97.9681 236.804 98.1725 236.618 98.4063C236.412 98.6549 236.212 98.9156 236.012 99.1823C235.619 99.7097 235.243 100.261 234.88 100.813C234.141 101.922 233.427 103.062 232.719 104.214C231.621 106.008 230.559 107.797 229.534 109.579L229.468 109.361C230.472 109.868 231.599 110.078 232.719 109.967C233.81 109.822 234.813 109.285 235.54 108.458L235.758 108.209L235.818 108.524C236.456 111.895 237.076 115.171 237.677 118.351C237.677 118.254 237.677 118.278 237.635 118.266H237.72H237.889C238.01 118.256 238.13 118.234 238.246 118.2L238.597 118.109L238.936 117.969C239.37 117.758 239.754 117.456 240.063 117.084C240.657 116.326 241.038 115.421 241.164 114.465H241.449C241.473 117.068 241.493 119.576 241.509 121.989L241.358 121.855L243.223 121.649C243.803 121.573 244.335 121.286 244.718 120.843C245.471 119.962 246.022 118.928 246.335 117.812L246.389 117.642L246.528 117.745L250.609 120.57L252.528 121.898C253.123 122.341 253.772 122.706 254.46 122.983C255.749 123.493 257.069 123.921 258.413 124.262C259.69 124.595 260.907 124.868 262.046 125.111H262.112V125.177C262.403 129.033 262.627 132.076 262.784 134.174C262.857 135.204 262.911 135.992 262.954 136.556C262.954 136.817 262.954 137.017 262.99 137.162C263.026 137.308 262.99 137.369 262.99 137.369C262.974 137.301 262.964 137.232 262.96 137.162C262.96 137.017 262.923 136.817 262.899 136.556C262.851 136.011 262.778 135.21 262.687 134.18C262.512 132.088 262.257 129.045 261.931 125.189L262.003 125.268C260.845 125.042 259.634 124.765 258.371 124.438C257.016 124.104 255.686 123.68 254.387 123.171C253.684 122.896 253.02 122.529 252.413 122.08L250.482 120.752L246.426 117.994L246.619 117.921C246.3 119.082 245.73 120.158 244.948 121.073C244.526 121.567 243.934 121.885 243.289 121.964L241.431 122.177H241.279V122.025C241.255 119.6 241.229 117.094 241.201 114.508H241.491C241.363 115.524 240.962 116.486 240.329 117.29C239.997 117.691 239.584 118.018 239.118 118.248L238.749 118.406L238.367 118.509C238.239 118.543 238.107 118.566 237.974 118.576C237.903 118.585 237.832 118.585 237.762 118.576H237.647H237.568H237.514C237.514 118.545 237.471 118.576 237.441 118.454C236.836 115.278 236.21 112.002 235.564 108.627L235.843 108.694C235.063 109.585 233.988 110.162 232.816 110.319C231.637 110.447 230.446 110.237 229.383 109.712L229.231 109.64L229.316 109.488C230.345 107.706 231.409 105.915 232.507 104.117C233.215 102.959 233.93 101.819 234.668 100.704C235.037 100.152 235.419 99.6006 235.812 99.0611C236.006 98.7943 236.212 98.5276 236.418 98.273C236.632 97.9884 236.897 97.7459 237.199 97.5576C237.848 97.3969 238.511 97.2954 239.179 97.2545C239.832 97.2 240.48 97.1575 241.122 97.1211C242.412 97.0545 243.695 97.006 244.96 96.9696C247.479 96.8544 249.967 96.7028 252.383 96.6543C252.988 96.6543 253.594 96.6543 254.199 96.6543C254.807 96.6395 255.414 96.676 256.016 96.7635C256.591 96.9636 257.115 97.291 257.547 97.7213C257.986 98.0994 258.4 98.5043 258.788 98.9338L271.345 111.18C272.277 112.107 273.21 112.968 274.057 113.865C274.866 114.745 275.589 115.699 276.219 116.714C277.333 118.507 278.201 120.442 278.798 122.468C278.925 122.928 279.046 123.383 279.125 123.832C279.203 124.28 279.246 124.717 279.318 125.135C279.446 125.972 279.585 126.76 279.712 127.493C279.978 128.952 280.206 130.193 280.396 131.215C280.584 132.222 280.729 132.998 280.832 133.531C280.874 133.792 280.911 133.986 280.935 134.137C280.959 134.289 280.935 134.295 280.935 134.295Z" fill="#655872"/>
<path d="M247.067 97.6607C247.067 97.7153 246.062 97.8911 244.5 98.4367C242.474 99.1631 240.512 100.057 238.634 101.11C238.097 101.38 237.61 101.739 237.193 102.171C236.812 102.58 236.509 103.054 236.297 103.571C235.907 104.446 235.716 105.397 235.74 106.354C235.74 107.172 235.8 107.845 235.806 108.312C235.836 108.554 235.836 108.798 235.806 109.04C235.75 108.803 235.715 108.561 235.704 108.318C235.661 107.857 235.576 107.191 235.54 106.354C235.484 105.361 235.66 104.369 236.055 103.456C236.271 102.903 236.59 102.395 236.993 101.959C237.429 101.499 237.941 101.117 238.507 100.831C240.399 99.7667 242.393 98.8934 244.458 98.2245C245.085 98.0264 245.724 97.8665 246.371 97.7456C246.599 97.6878 246.833 97.6593 247.067 97.6607Z" fill="#655872"/>
<path d="M254.26 99.8005C253.959 99.9277 253.647 100.025 253.327 100.092C252.722 100.273 251.856 100.516 250.815 100.916C249.595 101.386 248.42 101.964 247.303 102.644C246.662 103.014 245.984 103.402 245.269 103.777C244.555 104.153 243.768 104.487 243.065 104.929C242.72 105.14 242.416 105.414 242.169 105.736C241.946 106.058 241.78 106.417 241.679 106.796C241.492 107.541 241.366 108.299 241.304 109.064C241.216 110.37 241.216 111.68 241.304 112.986C241.358 114.108 241.413 115.017 241.431 115.641C241.466 115.968 241.466 116.297 241.431 116.623C241.373 116.301 241.336 115.975 241.322 115.647C241.267 114.968 241.195 114.077 241.104 112.998C240.986 111.682 240.968 110.358 241.049 109.039C241.106 108.254 241.229 107.475 241.419 106.712C241.529 106.295 241.711 105.901 241.958 105.548C242.222 105.192 242.553 104.891 242.932 104.662C243.683 104.19 244.452 103.893 245.16 103.505C245.869 103.117 246.547 102.753 247.194 102.389C248.33 101.714 249.529 101.149 250.773 100.704C251.612 100.414 252.467 100.172 253.334 99.9763C253.637 99.8945 253.947 99.8358 254.26 99.8005Z" fill="#655872"/>
<path d="M257.771 103.001C257.521 103.122 257.262 103.223 256.996 103.305C256.494 103.486 255.785 103.747 254.883 104.117C252.571 105.024 250.468 106.393 248.702 108.142C247.77 109.128 247.056 110.299 246.607 111.58C246.243 112.628 246.057 113.731 246.056 114.841C246.084 115.864 246.226 116.881 246.48 117.872C246.48 117.872 246.438 117.806 246.383 117.672C246.329 117.539 246.25 117.351 246.183 117.066C245.971 116.33 245.853 115.57 245.832 114.805C245.764 112.237 246.716 109.748 248.478 107.882C250.267 106.098 252.424 104.728 254.799 103.868C255.507 103.592 256.228 103.351 256.96 103.147C257.224 103.067 257.496 103.018 257.771 103.001Z" fill="#655872"/>
<path d="M261.428 110.616C261.387 110.666 261.335 110.708 261.277 110.737C261.116 110.825 260.942 110.889 260.762 110.925C260.09 110.999 259.411 110.892 258.794 110.616C258.382 110.451 257.954 110.328 257.517 110.246C257.023 110.173 256.518 110.229 256.052 110.41C254.978 110.901 253.963 111.511 253.025 112.228C252.042 112.879 251.193 113.712 250.524 114.684C249.961 115.593 249.562 116.551 248.932 117.151C248.667 117.431 248.361 117.668 248.024 117.854C247.76 117.989 247.466 118.056 247.17 118.048C246.987 118.042 246.805 118.009 246.631 117.951C246.516 117.909 246.456 117.878 246.462 117.872C246.468 117.866 246.716 117.933 247.17 117.927C247.442 117.915 247.706 117.835 247.939 117.697C248.249 117.503 248.531 117.266 248.775 116.993C249.359 116.224 249.864 115.397 250.282 114.526C250.959 113.516 251.827 112.649 252.837 111.974C253.358 111.598 253.872 111.258 254.381 110.931C254.865 110.599 255.388 110.326 255.937 110.119C256.45 109.932 257.002 109.88 257.541 109.967C257.993 110.063 258.433 110.205 258.855 110.391C259.437 110.675 260.08 110.808 260.726 110.779C260.965 110.748 261.2 110.694 261.428 110.616Z" fill="#655872"/>
<path d="M265.599 124.892C265.437 124.817 265.284 124.721 265.145 124.607C264.753 124.32 264.379 124.008 264.025 123.674C261.659 121.449 260.057 118.531 259.448 115.338C259.351 114.86 259.288 114.376 259.261 113.889C259.231 113.711 259.231 113.528 259.261 113.35C259.315 113.35 259.382 114.102 259.66 115.29C260.023 116.834 260.591 118.322 261.349 119.715C262.114 121.103 263.066 122.38 264.177 123.51C265.036 124.383 265.636 124.844 265.599 124.892Z" fill="#655872"/>
<path d="M275.099 123.013C274.887 123.42 274.595 123.779 274.239 124.068C273.412 124.814 272.429 125.366 271.361 125.68C270.293 125.995 269.168 126.066 268.07 125.887C267.612 125.836 267.17 125.693 266.768 125.468C266.768 125.42 267.283 125.577 268.1 125.668C270.253 125.887 272.406 125.249 274.094 123.892C274.729 123.383 275.056 122.971 275.099 123.013Z" fill="#655872"/>
<path d="M287.34 202.483C284.429 204.828 280.722 205.949 277.002 205.61C273.281 205.271 269.838 203.498 267.398 200.665C264.619 197.403 262.403 193.39 262.742 189.11C263.602 178.35 263.081 135.714 263.081 135.714L280.166 131.324C280.166 131.324 293.34 182.854 293.982 191.844C294.254 195.766 291.039 199.519 287.34 202.483Z" fill="#FFD1B9"/>
<path d="M149.769 184.418H169.373L180.222 180.593L183.383 172.178C183.383 172.178 189.746 167.328 196.363 173.457C202.98 179.586 207.073 191.814 207.073 191.814L189.515 197.931C189.515 197.931 177.277 207.476 176 207.5L142.22 206.63C142.22 206.63 141.874 191.05 149.769 184.418Z" fill="#FFD1B9"/>
<path d="M194.619 180.459L192.325 143.382C192.307 143.053 192.356 142.723 192.469 142.413C192.583 142.104 192.758 141.82 192.985 141.581C193.212 141.341 193.485 141.151 193.788 141.02C194.091 140.89 194.417 140.823 194.746 140.824H214.943C215.567 140.823 216.167 141.064 216.618 141.495C217.07 141.927 217.337 142.516 217.365 143.14L218.824 180.217C218.835 180.542 218.78 180.865 218.663 181.169C218.546 181.472 218.369 181.749 218.143 181.982C217.917 182.216 217.647 182.402 217.348 182.529C217.049 182.655 216.727 182.721 216.402 182.72H197.029C196.416 182.719 195.827 182.484 195.379 182.065C194.932 181.645 194.661 181.071 194.619 180.459Z" fill="#263238"/>
<path d="M182.995 173.209V169.438C182.995 169.438 186.694 160.708 186.591 161.03C186.488 161.351 193.148 156.75 193.148 156.75C193.376 158.671 193.302 160.616 192.93 162.515C192.495 163.945 191.742 165.257 190.726 166.352L190.2 170.426L198.597 163.588L208.592 158.32C209.186 158.272 209.782 158.379 210.323 158.631C210.863 158.883 211.328 159.271 211.674 159.757C212.952 161.46 211.141 163.164 210.294 163.697C209.446 164.231 201.787 169.759 201.787 169.759L197.549 174.652L198.452 175.682L205.935 170.929C205.935 170.929 215.397 164.006 217.523 163.582H217.644C218.035 163.521 218.435 163.579 218.793 163.749C219.152 163.918 219.451 164.191 219.652 164.532C219.853 164.874 219.948 165.268 219.923 165.664C219.899 166.059 219.756 166.439 219.514 166.753C216.911 170.141 212.431 175.9 212.207 175.706C211.886 175.422 202.169 182.132 202.169 182.132C202.169 182.132 211.886 178.938 212.74 178.192C213.593 177.446 222.305 168.183 222.305 168.183C222.305 168.183 223.474 168.395 223.692 171.057L223.159 173.718C223.159 173.718 223.371 174.361 223.692 175.743C224.013 177.125 219.115 186.6 219.115 186.6C219.115 186.6 199.977 197.143 198.173 197.246C196.369 197.349 189.697 197.246 189.697 197.246L182.995 173.209Z" fill="#FFD1B9"/>
<path d="M223.002 173.36C222.918 173.646 222.796 173.92 222.638 174.173C222.241 174.878 221.798 175.556 221.313 176.204C220.707 177.028 219.956 177.974 219.194 179.089C218.351 180.298 217.391 181.42 216.33 182.442C214.341 184.228 212.121 185.739 209.731 186.934C208.829 187.407 208.09 187.77 207.575 188.013C207.314 188.155 207.041 188.273 206.758 188.364C206.996 188.188 207.249 188.034 207.515 187.904L209.628 186.734C211.965 185.497 214.143 183.978 216.112 182.211C217.158 181.203 218.111 180.101 218.957 178.919C219.732 177.816 220.513 176.87 221.131 176.07C221.748 175.27 222.227 174.591 222.529 174.112C222.674 173.853 222.831 173.603 223.002 173.36Z" fill="black"/>
</g>
</svg>
