<svg width="20" height="12" viewBox="0 0 20 12" fill="none" xmlns="http://www.w3.org/2000/svg">
<path d="M8.00781 2.83203C8.46094 2.95703 9.51172 4.12109 9.98047 4.6875C10.418 3.9375 11.4779 3.13802 11.9531 2.83203C11.5938 1.76953 10.4883 0.501302 9.98047 0C9.12109 0.609375 8.30729 2.14193 8.00781 2.83203Z" fill="white"/>
<path d="M0 5.68359C1.26562 10.6211 4.92839 11.6732 6.60156 11.582C3.82031 10.0039 2.99479 6.83594 2.92969 5.44922C1.74219 5.26172 0.481771 5.52734 0 5.68359Z" fill="white"/>
<path d="M9.33594 5.85938C8.21094 8.23438 8.56771 10.5078 8.88672 11.3477C3.65234 9.61328 3.69792 4.67448 4.375 2.42188C6.92188 2.75 8.74349 4.85026 9.33594 5.85938Z" fill="white"/>
<path d="M20 5.68359C18.7344 10.6211 15.0716 11.6732 13.3984 11.582C16.1797 10.0039 17.0052 6.83594 17.0703 5.44922C18.2578 5.26172 19.5182 5.52734 20 5.68359Z" fill="white"/>
<path d="M10.6641 5.85938C8.88672 9.02344 10.2148 11.5234 10.2148 11.5234C16.2695 10.293 16.3021 4.67448 15.625 2.42188C13.0781 2.75 11.2565 4.85026 10.6641 5.85938Z" fill="white"/>
</svg>
