<svg width="14" height="20" viewBox="0 0 14 20" fill="none" xmlns="http://www.w3.org/2000/svg">
<path d="M7.65625 16.9336C7.65625 18.6271 5.94234 20 3.82813 20C1.71391 20 0 18.6271 0 16.9336C0 15.2401 1.71391 13.8672 3.82813 13.8672C5.94234 13.8672 7.65625 15.2401 7.65625 16.9336Z" fill="white"/>
<path d="M6.13281 0.761719C6.13281 0.341033 6.47385 0 6.89453 0C7.31522 0 7.65625 0.341033 7.65625 0.761719V16.9922H6.13281V0.761719Z" fill="white"/>
<path d="M7.42188 7.91016C10.1953 8.78906 11.0352 10.8789 11.25 12.168L10.8594 12.6758C10.4102 13.4961 11.25 13.9181 11.6797 13.8477C12.0768 13.7826 13.0313 12.9492 13.6719 10.1367C14.3125 7.32422 12.7799 5.4362 11.9336 4.84375C11.6667 4.63542 10.8125 4.00391 9.53125 3.14453C8.25 2.28516 7.64323 0.742188 7.42188 0.15625V7.91016Z" fill="white"/>
</svg>
