<svg width="20" height="16" viewBox="0 0 20 16" fill="none" xmlns="http://www.w3.org/2000/svg">
<path d="M0.783264 15.2654C4.05511 14.3887 7.22128 14.8088 8.39539 15.1284C8.39539 15.1284 6.90819 13.3085 2.89666 13.2694C1.74212 13.2581 1.1942 12.2518 1.21377 11.5082V2.4676C0.211866 2.34236 -0.0125187 2.85897 0.00052689 3.13293V14.3065C0.0161816 15.1519 0.431034 15.3241 0.783264 15.2654Z" fill="white"/>
<path d="M19.2167 15.2654C15.9449 14.3887 12.7787 14.8088 11.6046 15.1284C11.6046 15.1284 13.0918 13.3085 17.1033 13.2694C18.2579 13.2581 18.8058 12.2518 18.7862 11.5082V2.4676C19.7881 2.34236 20.0125 2.85897 19.9995 3.13293V14.3065C19.9838 15.1519 19.569 15.3241 19.2167 15.2654Z" fill="white"/>
<path d="M9.45208 3.36569V14.5805C7.59308 12.3497 3.97292 12.1735 3.11191 12.154C2.4231 12.1383 2.30308 11.5734 2.32917 11.293V0.726009C2.32917 0.0998193 2.79881 -0.0175883 3.09234 0.00197719L4.14904 0.0411141C7.08292 0.230868 8.75905 1.93244 9.34237 2.92829C9.41981 3.06048 9.45208 3.21249 9.45208 3.36569Z" fill="white"/>
<path d="M10.5479 3.36569V14.5805C12.4069 12.3497 16.0271 12.1735 16.8881 12.154C17.5769 12.1383 17.6969 11.5734 17.6708 11.293V0.726009C17.6708 0.0998193 17.2012 -0.0175883 16.9077 0.00197719L15.851 0.0411141C12.9171 0.230868 11.241 1.93244 10.6576 2.92829C10.5802 3.06048 10.5479 3.21249 10.5479 3.36569Z" fill="white"/>
</svg>
