<svg width="15" height="16" viewBox="0 0 15 16" fill="none" xmlns="http://www.w3.org/2000/svg">
<path fill-rule="evenodd" clip-rule="evenodd" d="M7.50146 16C11.6366 16 15 12.7438 15 8.74756C15 4.75059 11.6366 1.49725 7.50146 1.49725C7.22398 1.49725 6.94651 1.51423 6.67195 1.54465V0.372943C6.67195 0.220819 6.57458 0.0849684 6.43474 0.0269489C6.28612 -0.0282403 6.12285 0.0021845 6.01157 0.11044L3.35465 2.68311C3.20309 2.82957 3.20309 3.06448 3.35465 3.21095L6.00864 5.78998C6.12285 5.89753 6.28612 5.93079 6.43474 5.87277C6.57458 5.81192 6.67195 5.67677 6.67195 5.52748V4.22841C6.94651 4.17888 7.22398 4.15624 7.50146 4.15624C10.121 4.15624 12.2516 6.21522 12.2516 8.74756C12.2516 11.2792 10.1181 13.341 7.50146 13.341C4.88188 13.341 2.74844 11.2792 2.74844 8.74756C2.74844 8.54237 2.57639 8.37397 2.36187 8.37397H0.388764C0.174249 8.37397 0 8.54237 0 8.74756C0 12.7438 3.36563 16 7.50146 16Z" fill="#E1E1E1"/>
</svg>
