<svg width="19" height="20" viewBox="0 0 19 20" fill="none" xmlns="http://www.w3.org/2000/svg">
<path fill-rule="evenodd" clip-rule="evenodd" d="M17.6668 11.58C18.0198 11.77 18.2921 12.07 18.4837 12.37C18.8568 12.99 18.8266 13.75 18.4635 14.42L17.7576 15.62C17.3844 16.26 16.6885 16.66 15.9725 16.66C15.6195 16.66 15.2262 16.56 14.9035 16.36C14.6413 16.19 14.3387 16.13 14.016 16.13C13.0176 16.13 12.1805 16.96 12.1502 17.95C12.1502 19.1 11.2224 20 10.0626 20H8.69104C7.52117 20 6.59334 19.1 6.59334 17.95C6.57317 16.96 5.73611 16.13 4.73768 16.13C4.40487 16.13 4.10232 16.19 3.85019 16.36C3.52747 16.56 3.12407 16.66 2.78117 16.66C2.05504 16.66 1.35917 16.26 0.986023 15.62L0.290151 14.42C-0.0829978 13.77 -0.103168 12.99 0.269981 12.37C0.431343 12.07 0.733896 11.77 1.07679 11.58C1.35917 11.44 1.5407 11.21 1.71215 10.94C2.21641 10.08 1.91385 8.95 1.05662 8.44C0.0581937 7.87 -0.26453 6.6 0.310321 5.61L0.986023 4.43C1.57096 3.44 2.82151 3.09 3.83002 3.67C4.70743 4.15 5.84704 3.83 6.36138 2.98C6.52275 2.7 6.61351 2.4 6.59334 2.1C6.57317 1.71 6.68411 1.34 6.87573 1.04C7.24887 0.42 7.92458 0.02 8.66079 0H10.0828C10.8291 0 11.5048 0.42 11.8779 1.04C12.0595 1.34 12.1805 1.71 12.1502 2.1C12.1301 2.4 12.2208 2.7 12.3822 2.98C12.8965 3.83 14.0361 4.15 14.9236 3.67C15.9221 3.09 17.1827 3.44 17.7576 4.43L18.4333 5.61C19.0182 6.6 18.6955 7.87 17.687 8.44C16.8297 8.95 16.5272 10.08 17.0415 10.94C17.2029 11.21 17.3844 11.44 17.6668 11.58ZM6.52288 10.01C6.52288 11.58 7.80369 12.83 9.38705 12.83C10.9704 12.83 12.221 11.58 12.221 10.01C12.221 8.43999 10.9704 7.17999 9.38705 7.17999C7.80369 7.17999 6.52288 8.43999 6.52288 10.01Z" fill="#E1E1E1"/>
</svg>
