<svg width="301" height="299" viewBox="0 0 301 299" fill="none" xmlns="http://www.w3.org/2000/svg">
<g clip-path="url(#clip0_64_5015)">
<path d="M271.239 125.254C296.641 160.076 318.52 224.622 278.275 263.315C249.095 291.369 211.881 293.047 171.21 292.999C98.8254 292.913 11.5254 288.231 2.35336 219.394C-3.51999 175.314 21.1468 115.842 69.4806 115.842C153.812 115.842 215.775 49.2229 271.239 125.254Z" fill="white"/>
<mask id="mask0_64_5015" style="mask-type:alpha" maskUnits="userSpaceOnUse" x="-1" y="-12" width="311" height="305">
<path d="M309 -11.5C309 -11.5 318.52 224.62 278.275 263.313C249.095 291.367 211.881 293.045 171.21 292.997C98.8254 292.911 11.5253 288.229 2.35329 219.392C-3.52007 175.312 2.35331 -11.5 2.35331 -11.5L309 -11.5Z" fill="#6592E9"/>
</mask>
<g mask="url(#mask0_64_5015)">
<path d="M120.395 152.607L115 155.5L101.023 156.791C101.023 156.791 69.4489 162.647 68.0462 163.699C66.6434 164.751 46.4476 172.39 43.9927 183.977C41.5378 195.563 33.4999 271.165 33.4999 271.165V275.352C33.4999 280.504 34.9886 285.545 37.7868 289.871C39.252 292.135 41.764 293.505 44.4614 293.509L173.341 293.711L204.58 293.266C204.58 293.266 216.584 265.231 216.584 257.522C216.584 249.813 213.044 191.861 213.044 191.861L175.586 165.423L120.395 152.607Z" fill="#6F84C5"/>
<g opacity="0.3">
<path opacity="0.3" d="M192.798 182.297L193.047 180.159C190.478 180.402 187.321 180.706 185.271 182.27C182.877 184.091 181.933 187.207 181.123 190.107C179.289 196.703 184.496 230.66 184.226 237.505C186.505 236.541 188.104 221.993 188.515 219.525C189.513 213.583 187.497 209.874 188.104 208.215C188.711 206.556 188.704 204.755 188.778 202.988C189.001 195.111 189.783 189.567 192.825 182.297" fill="black"/>
</g>
<path d="M159.272 73.3111C156.008 69.2646 157.08 62.797 160.816 59.1821C164.553 55.5672 170.258 54.5218 175.364 55.3851C179.079 56.0402 182.586 57.5645 185.599 59.8337C188.613 62.1028 191.047 65.0525 192.703 68.4418C194.45 72.1174 195.401 76.4607 198.618 78.956C201.437 81.1546 205.315 81.3435 208.532 82.9149C212.834 85.0258 215.606 89.5309 216.625 94.2249C217.643 98.9188 217.022 103.795 216.031 108.489C215.114 112.792 213.9 117.438 215.748 121.431C217.596 125.423 221.764 127.447 224.515 130.724C229.729 136.882 228.562 147.362 222.094 152.205C220.03 153.749 217.427 154.902 216.449 157.303C215.545 159.475 216.314 161.937 216.267 164.283C216.146 170.353 209.482 175.31 203.649 173.725C200.708 172.916 197.99 170.744 194.969 171.156C191.948 171.567 189.965 174.326 187.496 176.146C185.037 177.86 182.063 178.675 179.073 178.454C176.084 178.233 173.262 176.989 171.081 174.933C169.314 173.172 167.884 170.771 165.47 170.131C163.056 169.49 160.526 170.879 158.051 170.542C154.821 170.104 152.696 166.893 151.739 163.798C150.781 160.702 150.532 157.296 148.913 154.457C146.802 150.748 142.776 148.644 139.397 146.027C135.652 143.132 132.573 139.467 130.367 135.279C128.162 131.091 126.882 126.478 126.614 121.752C126.346 117.026 127.096 112.298 128.814 107.888C130.532 103.477 133.177 99.4869 136.571 96.1874" fill="#655872"/>
<path d="M114.039 154.214C110.838 157.953 108.57 162.398 107.424 167.184C106.277 171.971 106.284 176.961 107.443 181.744C108.616 186.391 111.115 192.086 114.436 197.1C120.401 206.106 132.313 204.845 140.648 197.974C142.616 196.352 144.496 194.761 146.182 193.283C149.783 190.134 151.692 185.528 153.472 181.083C154.497 178.527 155.543 175.755 154.895 173.078C154.423 171.102 153.081 169.456 151.678 167.986C147.095 163.315 141.466 159.803 135.256 157.739C129.047 155.675 122.435 155.119 115.968 156.116" fill="#FFD1BD"/>
<path d="M141.333 85.6935C142.992 82.3319 145.756 79.6421 149.162 78.0744C152.567 76.5067 156.408 76.156 160.041 77.0812L183.052 82.9487C194.551 86.6512 203.555 104.442 196.777 120.042C191.422 132.35 185.939 147.814 180.435 156.312C169.375 173.388 154.255 169.49 154.255 169.49L146.094 187.699L112.731 156.413L141.333 85.6935Z" fill="#FFD1BD"/>
<path d="M180.179 124.85C180.611 124.682 181.737 126.833 184.226 128.04C186.714 129.247 189.156 128.876 189.284 129.315C189.351 129.517 188.791 129.922 187.712 130.111C186.267 130.332 184.789 130.096 183.484 129.436C182.182 128.816 181.114 127.795 180.435 126.523C179.963 125.585 179.97 124.918 180.179 124.85Z" fill="#655872"/>
<path d="M154.12 112.987C154.612 112.893 155.725 115.287 158.416 116.946C161.107 118.605 163.811 118.666 163.926 119.131C163.986 119.347 163.346 119.664 162.138 119.671C160.495 119.642 158.891 119.159 157.505 118.275C156.127 117.437 155.019 116.219 154.315 114.768C153.843 113.702 153.89 113.014 154.12 112.987Z" fill="#655872"/>
<path d="M165.501 139.217C165.546 139.098 167.165 139.437 169.736 140.082C170.378 140.254 171.021 140.367 171.31 140.082C171.599 139.797 171.689 139.109 171.708 138.4C171.794 136.938 171.88 135.403 171.965 133.795C172.396 127.266 173 121.973 173.315 122C173.629 122.027 173.533 127.325 173.103 133.859C172.981 135.471 172.871 136.997 172.756 138.459C172.679 139.131 172.756 139.947 172.004 140.608C171.818 140.757 171.594 140.869 171.349 140.934C171.104 140.999 170.845 141.016 170.59 140.985C170.208 140.937 169.834 140.849 169.479 140.721C166.973 139.878 165.45 139.34 165.501 139.217Z" fill="#655872"/>
<path d="M154.221 169.605C154.221 169.605 140.894 164.526 131.911 151.739C131.911 151.739 135.506 168.593 155.232 175.337V175.071C155.232 173.486 154.763 171.935 153.884 170.616L154.221 169.605Z" fill="black" fill-opacity="0.1"/>
<path d="M156.244 104.341C156.669 103.667 159.306 104.577 162.57 104.867C165.834 105.157 168.593 104.833 168.876 105.589C168.997 105.946 168.404 106.54 167.217 107.039C165.646 107.621 163.962 107.838 162.295 107.673C160.628 107.508 159.02 106.966 157.593 106.088C156.487 105.366 156.021 104.665 156.244 104.341Z" fill="#655872"/>
<path d="M185.615 111.76C186.465 111.76 187.517 113.85 189.331 115.86C191.145 117.87 193.04 119.232 192.912 120.082C192.838 120.467 192.13 120.635 191.01 120.298C189.527 119.792 188.209 118.895 187.193 117.701C186.146 116.547 185.433 115.13 185.129 113.601C184.954 112.454 185.244 111.787 185.615 111.76Z" fill="#655872"/>
<path d="M158.409 147.767C157.964 147.693 158.638 144.759 156.615 142.095C154.592 139.431 151.395 139.02 151.469 138.608C151.469 138.413 152.292 138.197 153.62 138.473C155.345 138.847 156.882 139.819 157.957 141.218C159.005 142.556 159.489 144.25 159.306 145.939C159.097 147.187 158.604 147.834 158.409 147.767Z" fill="#655872"/>
<path d="M121.66 76.1168C119.877 77.5074 118.446 79.2991 117.485 81.3463C116.525 83.3935 116.06 85.6385 116.13 87.8989C116.231 90.4212 116.845 93.3954 114.99 95.1017C113.135 96.808 110.121 95.911 107.571 95.9245C105.332 96.001 103.19 96.8622 101.521 98.3575C99.8517 99.8529 98.7612 101.887 98.4398 104.105C98.2577 105.704 98.4398 107.423 97.6508 108.826C96.8617 110.229 95.1082 110.91 93.6852 111.773C91.9017 112.854 90.4335 114.385 89.4277 116.212C88.4218 118.039 87.9136 120.098 87.9539 122.183C87.9942 124.268 88.5816 126.306 89.6573 128.093C90.733 129.879 92.2592 131.352 94.0831 132.363C95.7287 133.274 97.6642 133.847 98.8647 135.297C100.214 136.963 100.301 139.344 100.976 141.367C101.631 143.352 102.892 145.082 104.582 146.314C106.272 147.545 108.305 148.215 110.396 148.23C112.487 148.245 114.53 147.604 116.237 146.397C117.944 145.19 119.23 143.478 119.913 141.502" fill="#655872"/>
<path d="M158.942 69.6626C158.263 71.6402 158.028 73.7432 158.254 75.822C158.48 77.9007 159.161 79.9041 160.249 81.6897C161.337 83.4752 162.806 84.999 164.55 86.1526C166.294 87.3062 168.27 88.0613 170.339 88.3642C173.543 88.8363 177.36 88.4316 179.424 90.9202C181.589 93.537 180.307 97.7049 182.02 100.639C184.475 104.833 188.657 108.179 192.629 110.984C195.691 113.149 192.184 119.172 193.526 122.679C194.868 126.186 200.371 134.184 204.128 134.333C204.944 131.197 209.617 117.418 209.698 114.181C209.779 110.944 209.024 107.572 207.041 105.022C205.942 103.626 204.492 102.513 203.541 101.016C201.518 97.7723 202.192 93.5977 201.518 89.8007C201.063 87.3567 200.03 85.0572 198.504 83.0942C196.979 81.1313 195.006 79.562 192.75 78.5177C189.007 76.8047 184.617 76.6158 181.164 74.3835C178.608 72.7312 176.78 70.0942 174.13 68.597C168.97 65.6767 162.509 67.9226 157.175 70.4853" fill="#655872"/>
<path d="M134.11 108.867C133.577 108.509 130.063 111.187 133.536 113.318C139.653 117.061 144.907 104.422 144.678 100.221C147.794 98.8717 150.95 97.5701 153.695 95.4996C156.44 93.4292 160.54 86.5906 161.275 83.1375C163.616 84.0885 174.919 84.1761 173.941 83.495C171.709 81.9506 167.197 78.6392 166.596 76.0764C165.288 70.445 161.289 65.5487 156.008 64.0785C153.251 63.3819 150.343 63.5967 147.718 64.6909C145.093 65.785 142.893 67.6996 141.447 70.1482C135.155 68.071 127.696 69.9392 122.678 74.8692C120.174 77.394 118.32 80.4896 117.277 83.8894C116.234 87.2893 116.032 90.8918 116.69 94.3868C117.06 96.1808 117.667 98.0557 117.094 99.8361C116.379 102.035 114.167 103.208 112.407 104.651C107.612 108.543 105.541 115.442 106.135 121.62C106.728 127.798 107.78 130.3 110.856 132.539C116.865 136.929 104.375 148.138 115.577 151.928" fill="#655872"/>
<path d="M196.945 110.984C197.019 110.984 196.615 111.949 196.203 113.682C195.633 116.174 195.551 118.753 195.961 121.276C196.234 123.009 196.75 124.696 197.492 126.287C198.379 128.103 199.489 129.802 200.796 131.345C201.504 132.241 202.108 133.213 202.597 134.245C203.11 135.363 203.328 136.593 203.231 137.819C203.035 140.328 201.801 142.54 200.884 144.82C199.967 147.099 199.38 149.473 200.263 151.564C201.147 153.655 202.752 155.233 204.269 156.744C205.827 158.138 207.162 159.761 208.228 161.559C208.676 162.424 208.964 163.363 209.078 164.331C209.158 165.221 209.092 166.119 208.882 166.988C208.57 168.284 207.976 169.494 207.141 170.533C206.306 171.572 205.252 172.413 204.054 172.997C203.401 173.291 202.707 173.484 201.997 173.57C201.748 173.606 201.496 173.606 201.248 173.57C202.162 173.371 203.052 173.077 203.905 172.694C205.005 172.083 205.962 171.246 206.715 170.238C207.467 169.23 207.996 168.074 208.269 166.846C208.658 165.172 208.418 163.412 207.594 161.903C206.536 160.193 205.226 158.651 203.71 157.33C202.185 155.826 200.412 154.208 199.468 151.874C198.998 150.688 198.843 149.402 199.016 148.138C199.211 146.881 199.567 145.655 200.075 144.489C201.032 142.163 202.206 139.998 202.381 137.745C202.556 135.493 201.43 133.517 200.155 131.824C198.833 130.222 197.718 128.459 196.837 126.577C195.036 122.5 194.693 117.928 195.866 113.628C196.053 112.947 196.295 112.281 196.588 111.638C196.797 111.193 196.912 110.971 196.945 110.984Z" fill="#455A64"/>
<path d="M135.418 110.782C137.34 107.012 134.744 102.278 130.522 102.284C128.202 102.284 125.7 103.552 123.629 107.531C118.092 118.147 129.888 121.519 130.07 121.222C130.178 121.047 133.166 115.193 135.418 110.782Z" fill="#FFD1BD"/>
<path d="M184.347 122.335C183.181 122.82 182.944 124.21 182.998 125.478C182.998 127.056 183.417 127.312 184.705 129.956C186.816 134.279 189.331 142.48 189.331 142.48C189.331 142.48 187.267 163.184 188.657 168.04C189.037 169.331 189.727 170.508 190.668 171.47C191.608 172.432 192.77 173.149 194.052 173.557L192.164 189.547H214.75C214.75 189.547 213.941 174.069 213.462 169.349C212.943 164.358 213.287 134.178 213.287 134.178L211.068 118.059L205.834 109.015C205.043 109.535 204.456 110.313 204.176 111.218C203.895 112.122 203.938 113.096 204.297 113.972C205.477 117.283 206.252 123.643 206.252 123.643L193.175 103.957C193.175 103.957 190.606 104.577 190.478 109.352C190.478 109.352 186.674 111.827 189.129 115.847C191.827 120.332 194.7 133.807 193.701 133.807L185.608 121.89L184.347 122.335Z" fill="#FFD1BD"/>
<path d="M192.083 189.547C192.083 189.547 192.083 189.183 192.184 188.489C192.285 187.794 192.373 186.742 192.528 185.393C192.838 182.695 193.297 178.649 193.877 173.543L193.937 173.638C192.884 173.3 191.907 172.757 191.064 172.039C190.13 171.275 189.391 170.299 188.906 169.193C188.419 167.994 188.149 166.717 188.11 165.423C188.03 164.075 188.003 162.726 188.016 161.309C188.077 155.651 188.515 149.332 189.149 142.466V142.52C188.09 139.189 186.924 135.675 185.453 132.114C185.082 131.224 184.684 130.34 184.239 129.463C183.752 128.593 183.321 127.692 182.951 126.766C182.827 126.261 182.773 125.741 182.789 125.221C182.79 124.696 182.865 124.174 183.012 123.67C183.165 123.139 183.499 122.679 183.956 122.369C184.189 122.237 184.433 122.124 184.684 122.031L185.399 121.735L185.521 121.687L185.595 121.795L194.059 134.211L193.755 134.279C193.863 133.24 193.849 132.192 193.715 131.156C193.591 130.095 193.411 129.042 193.175 128C192.694 125.868 192.072 123.771 191.314 121.721C190.565 119.637 189.635 117.614 188.717 115.53C188.237 114.453 188.11 113.251 188.353 112.097C188.634 110.928 189.319 109.895 190.289 109.184L190.208 109.312C190.321 108.272 190.563 107.25 190.93 106.27C191.131 105.76 191.396 105.277 191.719 104.834C192.05 104.355 192.521 103.99 193.067 103.788H193.175L193.25 103.896L193.398 104.126L206.32 123.583L206.01 123.697C205.702 121.105 205.252 118.531 204.661 115.989C204.506 115.361 204.33 114.748 204.128 114.147C203.897 113.526 203.785 112.868 203.797 112.205C203.837 111.544 204.031 110.901 204.364 110.329C204.696 109.756 205.158 109.269 205.713 108.907L205.854 108.813L205.942 108.968L211.169 118.019C211.938 123.657 212.673 129.03 213.374 134.137C213.28 142.486 213.233 150.128 213.239 156.885C213.239 160.257 213.239 163.427 213.347 166.327C213.388 167.791 213.469 169.18 213.604 170.515C213.738 171.851 213.799 173.119 213.88 174.326C214.19 179.161 214.386 182.952 214.521 185.535C214.575 186.816 214.622 187.807 214.656 188.482C214.689 189.156 214.689 189.493 214.689 189.493C214.689 189.493 214.656 189.149 214.608 188.482C214.561 187.814 214.507 186.823 214.426 185.541C214.271 182.958 214.049 179.168 213.711 174.339C213.624 173.132 213.536 171.864 213.415 170.529C213.293 169.193 213.185 167.831 213.138 166.334C213.05 163.414 213.024 160.264 213.003 156.892C212.97 150.148 213.003 142.493 213.077 134.144C212.369 129.045 211.621 123.663 210.845 118.032V118.086C209.137 115.155 207.39 112.142 205.605 109.049L205.834 109.103C205.329 109.438 204.908 109.886 204.604 110.411C204.301 110.937 204.124 111.525 204.087 112.131C204.077 112.75 204.182 113.365 204.398 113.945C204.607 114.559 204.782 115.186 204.944 115.813C205.553 118.371 206.019 120.96 206.34 123.569L206.434 124.304L206.023 123.684L193.094 104.233L192.939 104.004L193.128 104.078C192.664 104.264 192.265 104.583 191.982 104.996C191.675 105.411 191.423 105.864 191.233 106.344C190.89 107.298 190.663 108.29 190.559 109.298V109.373L190.491 109.426C189.599 110.088 188.968 111.043 188.711 112.124C188.479 113.208 188.6 114.337 189.055 115.348C189.958 117.405 190.909 119.455 191.651 121.546C192.426 123.605 193.061 125.714 193.553 127.858C193.789 128.911 193.969 129.976 194.093 131.048C194.224 132.119 194.224 133.201 194.093 134.272L194.039 134.704L193.789 134.333C190.862 130.037 188.023 125.855 185.339 121.91L185.527 121.964C185.069 122.166 184.536 122.342 184.138 122.571C183.74 122.84 183.451 123.241 183.322 123.704C183.184 124.177 183.113 124.668 183.113 125.161C183.09 125.649 183.14 126.137 183.261 126.611C183.624 127.525 184.045 128.415 184.523 129.275C184.974 130.151 185.372 131.048 185.743 131.972C187.214 135.553 188.374 139.067 189.426 142.412V142.446C188.751 149.305 188.32 155.624 188.239 161.262C188.239 162.679 188.239 164.041 188.326 165.363C188.359 166.632 188.615 167.885 189.082 169.065C189.549 170.093 190.226 171.011 191.069 171.761C191.912 172.512 192.903 173.077 193.978 173.422H194.052V173.489L192.616 185.326C192.447 186.674 192.319 187.713 192.231 188.421C192.144 189.129 192.083 189.547 192.083 189.547Z" fill="#D37A57"/>
<path d="M202.064 135.52C201.947 135.157 201.863 134.785 201.815 134.407C201.693 133.678 201.471 132.64 201.181 131.365C200.399 128.045 199.28 124.814 197.842 121.721C196.384 118.635 194.684 115.67 192.757 112.852C192.029 111.767 191.408 110.897 190.997 110.296C190.761 109.996 190.551 109.675 190.37 109.339C190.639 109.609 190.885 109.903 191.105 110.215C191.563 110.789 192.204 111.638 192.96 112.711C194.957 115.502 196.7 118.468 198.166 121.573C199.617 124.686 200.712 127.953 201.43 131.311C201.693 132.599 201.875 133.651 201.956 134.38C202.019 134.757 202.055 135.138 202.064 135.52Z" fill="#D37A57"/>
<path d="M209.078 130.488C208.424 129.371 207.871 128.197 207.426 126.981C206.869 125.812 206.418 124.596 206.077 123.346C206.735 124.459 207.288 125.631 207.729 126.847C208.287 128.018 208.738 129.237 209.078 130.488Z" fill="#D37A57"/>
<path d="M190.275 182.924C186.316 217.907 181.15 255.148 175.222 293.839H221.197C229.837 274.699 224.569 258.001 222.249 234.2L214.669 180.159L190.275 182.924Z" fill="#6F84C5"/>
<path d="M175.222 293.839C175.215 293.763 175.215 293.686 175.222 293.61L175.303 292.936C175.384 292.329 175.506 291.479 175.654 290.386C175.978 288.154 176.443 284.991 177.003 281.032C178.169 273.114 179.768 262.216 181.542 250.171C183.315 238.126 184.738 227.18 185.709 219.255C186.195 215.297 186.573 212.086 186.822 209.874C186.95 208.782 187.052 207.925 187.119 207.318L187.207 206.644C187.212 206.566 187.226 206.489 187.247 206.414C187.257 206.491 187.257 206.568 187.247 206.644L187.2 207.318C187.139 207.925 187.065 208.788 186.964 209.881C186.755 212.1 186.418 215.317 185.959 219.282C185.055 227.214 183.632 238.166 181.912 250.218C180.193 262.27 178.5 273.148 177.279 281.059C176.659 284.991 176.16 288.174 175.809 290.4C175.634 291.486 175.492 292.335 175.398 292.942C175.344 293.212 175.31 293.435 175.276 293.617C175.242 293.799 175.222 293.839 175.222 293.839Z" fill="#263238"/>
<path d="M104.988 269.081L119.69 268.164C119.69 268.164 121.511 265.035 124.209 264.844C125.581 264.759 126.042 264.723 126.663 264.737C127.941 264.765 129.088 265.484 130.238 266.043L139.992 265.56L147.502 266.065L152.053 268.272C152.053 268.272 153.95 270.695 149.913 271.093L146.341 270.6L142.477 271.13L149.36 272.479C149.675 272.543 149.971 272.677 150.227 272.871C150.483 273.065 150.692 273.314 150.838 273.6C151.749 275.211 152.49 276.913 153.05 278.677C153.08 278.86 153.072 279.048 153.027 279.228C152.982 279.408 152.902 279.577 152.789 279.725C152.677 279.873 152.536 279.996 152.375 280.088C152.214 280.179 152.035 280.237 151.851 280.258L152.621 283.805C152.621 283.805 151.187 286.664 149.155 284.14L147.476 282.119L142.793 282.762C142.793 282.762 153.308 287.775 153.712 288.555C154.117 289.335 153.812 291.345 151.452 291.534C149.092 291.724 143.84 287.241 141.63 287.545C139.42 287.848 125.359 289.085 122.945 288.001C120.53 286.916 100.73 289.651 100.73 289.651L104.988 269.081Z" fill="#FFD1BD"/>
<path d="M152.576 283.733C152.343 283.144 152.153 282.538 152.008 281.921C151.839 281.357 151.673 280.721 151.386 279.967C151.265 279.602 151.134 279.216 150.991 278.846C150.884 278.476 150.687 278.139 150.417 277.863C149.692 277.521 148.911 277.316 148.111 277.259C147.352 277.144 146.66 277.055 146.089 276.971C145.454 276.956 144.822 276.862 144.21 276.691C144.838 276.566 145.481 276.537 146.117 276.606C146.708 276.631 147.408 276.676 148.179 276.776C148.568 276.821 148.978 276.871 149.399 276.941C149.87 277.007 150.322 277.171 150.725 277.424C150.838 277.502 150.938 277.599 151.019 277.71C151.09 277.812 151.155 277.919 151.212 278.03L151.472 278.639C151.627 279.042 151.752 279.436 151.843 279.791C152.067 280.546 152.232 281.232 152.36 281.802C152.613 282.978 152.659 283.722 152.576 283.733Z" fill="#EB996E"/>
<path d="M131.373 265.957C131.372 266.106 130.136 266.177 128.593 266.339C127.051 266.501 125.85 266.673 125.815 266.522C126.657 266.099 127.581 265.861 128.523 265.825C129.469 265.628 130.449 265.673 131.373 265.957Z" fill="#EB996E"/>
<path d="M274.834 293.536H143.727L160.648 201.525C160.938 199.946 161.77 198.518 163.002 197.488C164.234 196.458 165.787 195.892 167.392 195.887H285.213C286.226 195.887 287.225 196.112 288.141 196.543C289.057 196.975 289.866 197.604 290.51 198.385C291.155 199.166 291.618 200.08 291.869 201.061C292.119 202.042 292.149 203.067 291.957 204.061L274.834 293.536Z" fill="#444444"/>
<path d="M230.585 242.644C230.585 243.898 230.213 245.124 229.517 246.166C228.82 247.209 227.83 248.021 226.672 248.501C225.513 248.981 224.239 249.106 223.009 248.862C221.779 248.617 220.65 248.013 219.763 247.127C218.876 246.24 218.273 245.111 218.028 243.881C217.783 242.651 217.909 241.376 218.389 240.218C218.869 239.06 219.681 238.07 220.724 237.373C221.766 236.676 222.992 236.305 224.246 236.305C225.927 236.305 227.539 236.972 228.728 238.161C229.917 239.35 230.585 240.963 230.585 242.644Z" fill="#F5F5F5"/>
<path d="M143.727 293.536H94.002L94.2043 293.387C98.6347 290.05 103.99 288.165 109.534 287.992L145.096 286.953L143.727 293.536Z" fill="#444444"/>
<path d="M87.0351 41.2976L82.0517 25.0129L73.9396 28.5669L64.139 17.0674L72.0701 33.6406L80.2899 30.004L87.0351 41.2976Z" fill="#EF8189"/>
<path d="M202.897 41.3884L192.982 31.2555L198.972 29.2214L194.588 19.1677L203.49 30.7993L197.391 32.8434L202.897 41.3884Z" fill="#EF8189"/>
<path d="M262.34 79.0376L275.093 73.6862L277.064 80.6457L289.302 80.8342L274.861 84.4753L272.88 77.4011L262.34 79.0376Z" fill="#EF8189"/>
<path fill-rule="evenodd" clip-rule="evenodd" d="M272.784 65.1359C273.999 64.3435 274.363 63.6776 274.386 63.2019C274.408 62.7262 274.11 62.0285 272.977 61.123C271.872 60.2406 270.161 59.3169 267.848 58.3811C263.236 56.5146 256.464 54.6909 248.001 53.02C231.092 49.6812 207.605 46.9852 181.556 45.7318C155.507 44.4784 131.869 44.907 114.717 46.6069C106.134 47.4576 99.2178 48.6227 94.4474 50.0377C92.0558 50.7472 90.2637 51.5023 89.0794 52.2746C87.8642 53.067 87.5004 53.7329 87.4776 54.2086C87.4547 54.6843 87.7528 55.382 88.8863 56.2875C89.991 57.1699 91.7023 58.0936 94.0147 59.0294C98.6273 60.8959 105.399 62.7196 113.862 64.3905C130.771 67.7293 154.258 70.4253 180.307 71.6787C206.357 72.9321 229.994 72.5035 247.146 70.8036C255.73 69.9529 262.645 68.7878 267.416 67.3728C269.807 66.6633 271.599 65.9082 272.784 65.1359ZM180.259 72.6776C232.424 75.1875 275.013 70.9666 275.384 63.25C275.756 55.5333 233.769 47.2429 181.604 44.7329C129.439 42.223 86.85 46.4438 86.4787 54.1605C86.1074 61.8772 128.094 70.1676 180.259 72.6776Z" fill="white"/>
<path fill-rule="evenodd" clip-rule="evenodd" d="M263.122 99.9977C264.634 99.523 265.451 98.8442 265.806 98.0771C266.161 97.3101 266.15 96.2476 265.533 94.7875C264.918 93.3305 263.75 91.6077 262.023 89.6505C258.574 85.7421 253.055 81.0793 245.85 75.9649C231.455 65.7455 210.498 53.8394 186.395 42.6837C162.291 31.5281 139.652 23.2569 122.545 18.8962C113.984 16.7137 106.857 15.5237 101.645 15.4236C99.0356 15.3734 96.9665 15.5983 95.4575 16.0721C93.9454 16.5468 93.1278 17.2256 92.7728 17.9927C92.4178 18.7597 92.4294 19.8222 93.0461 21.2823C93.6615 22.7393 94.8291 24.4621 96.5563 26.4193C100.006 30.3277 105.525 34.9905 112.729 40.1049C127.125 50.3243 148.081 62.2304 172.185 73.386C196.288 84.5417 218.927 92.8129 236.034 97.1736C244.596 99.3561 251.722 100.546 256.934 100.646C259.544 100.696 261.613 100.471 263.122 99.9977ZM171.765 74.2936C220.048 96.6403 262.558 107.477 266.714 98.4972C270.87 89.5178 235.098 64.1229 186.815 41.7762C138.531 19.4295 96.0212 8.59322 91.8653 17.5726C87.7094 26.552 123.482 51.9469 171.765 74.2936Z" fill="white"/>
<g opacity="0.3">
<path opacity="0.3" d="M69.6928 264.966L96.597 268.203L72.2601 261.642C68.689 260.679 66.2434 257.394 66.3456 253.696L67.164 224.095L62.7252 255.918C62.1067 260.352 65.2476 264.431 69.6928 264.966Z" fill="black"/>
</g>
</g>
</g>
<defs>
<clipPath id="clip0_64_5015">
<rect width="300" height="299" fill="white" transform="translate(0.5)"/>
</clipPath>
</defs>
</svg>
