<svg width="21" height="20" viewBox="0 0 21 20" fill="none" xmlns="http://www.w3.org/2000/svg">
<path fill-rule="evenodd" clip-rule="evenodd" d="M10.5 20.0001C4.98 20.0001 0.5 15.5301 0.5 10.0001C0.5 4.48012 4.98 0.00012207 10.5 0.00012207C16.03 0.00012207 20.5 4.48012 20.5 10.0001C20.5 15.5301 16.03 20.0001 10.5 20.0001ZM13.69 13.7101C13.81 13.7801 13.94 13.8201 14.08 13.8201C14.33 13.8201 14.58 13.6901 14.72 13.4501C14.93 13.1001 14.82 12.6401 14.46 12.4201L10.9 10.3001V5.68012C10.9 5.26012 10.56 4.93012 10.15 4.93012C9.74 4.93012 9.4 5.26012 9.4 5.68012V10.7301C9.4 10.9901 9.54 11.2301 9.77 11.3701L13.69 13.7101Z" fill="#6592E9"/>
</svg>
