<svg width="21" height="14" viewBox="0 0 21 14" fill="none" xmlns="http://www.w3.org/2000/svg">
<path d="M0.5 11.9813C0.5 11.0528 1.25272 10.3 2.18125 10.3C3.10978 10.3 3.8625 11.0528 3.8625 11.9813C3.8625 12.9098 3.10978 13.6625 2.18125 13.6625C1.25272 13.6625 0.5 12.9098 0.5 11.9813Z" fill="#E1E1E1"/>
<path d="M0.5 6.9813C0.5 6.05277 1.25272 5.30005 2.18125 5.30005C3.10978 5.30005 3.8625 6.05277 3.8625 6.9813C3.8625 7.90983 3.10978 8.66255 2.18125 8.66255C1.25272 8.66255 0.5 7.90983 0.5 6.9813Z" fill="#E1E1E1"/>
<path d="M0.5 1.9813C0.5 1.05277 1.25272 0.300049 2.18125 0.300049C3.10978 0.300049 3.8625 1.05277 3.8625 1.9813C3.8625 2.90983 3.10978 3.66255 2.18125 3.66255C1.25272 3.66255 0.5 2.90983 0.5 1.9813Z" fill="#E1E1E1"/>
<path d="M5.5 11.9813C5.5 11.0528 6.25272 10.3 7.18125 10.3H18.8188C19.7473 10.3 20.5 11.0528 20.5 11.9813C20.5 12.9098 19.7473 13.6625 18.8188 13.6625H7.18125C6.25272 13.6625 5.5 12.9098 5.5 11.9813Z" fill="#E1E1E1"/>
<path d="M5.5 6.9813C5.5 6.05277 6.25272 5.30005 7.18125 5.30005H18.8188C19.7473 5.30005 20.5 6.05277 20.5 6.9813C20.5 7.90983 19.7473 8.66255 18.8188 8.66255H7.18125C6.25272 8.66255 5.5 7.90983 5.5 6.9813Z" fill="#E1E1E1"/>
<path d="M5.5 1.9813C5.5 1.05277 6.25272 0.300049 7.18125 0.300049H18.8188C19.7473 0.300049 20.5 1.05277 20.5 1.9813C20.5 2.90983 19.7473 3.66255 18.8188 3.66255H7.18125C6.25272 3.66255 5.5 2.90983 5.5 1.9813Z" fill="#E1E1E1"/>
</svg>
